<?xml version="1.0" encoding="utf-8"?>
<!-- Generator: Adobe Illustrator 18.1.0, SVG Export Plug-In . SVG Version: 6.00 Build 0)  -->
<svg version="1.1" id="Layer_1" xmlns="http://www.w3.org/2000/svg" xmlns:xlink="http://www.w3.org/1999/xlink" x="0px" y="0px"
	 viewBox="0 0 105.9 120.6" enable-background="new 0 0 105.9 120.6" xml:space="preserve">
<circle fill="#814FA0" stroke="#FFFFFF" stroke-width="4" stroke-miterlimit="10" cx="52.8" cy="67.3" r="50.8"/>
<g>
	<path fill="#00C0E6" d="M1.1,23.9l4.6-4.7c0.8-0.8,1.5-1.2,2.3-1.2s1.5,0.2,2,0.8c0.5,0.5,0.7,1,0.8,1.6c0,0.4-0.1,0.9-0.3,1.4
		c0.7-0.4,1.4-0.6,2-0.6c0.6,0.1,1.2,0.3,1.7,0.8c0.4,0.4,0.7,0.9,0.8,1.4c0.1,0.5,0.1,1,0,1.6c-0.1,0.3-0.3,0.7-0.7,1.2
		c-0.5,0.6-0.8,1-1,1.2l-4.2,4.3L1.1,23.9z M6.7,24.5l1.1-1.1c0.4-0.4,0.6-0.7,0.6-1c0-0.3-0.1-0.5-0.4-0.8
		c-0.2-0.2-0.5-0.3-0.8-0.3s-0.6,0.2-1,0.6L5.2,23L6.7,24.5z M9.9,27.6l1.2-1.3c0.4-0.4,0.6-0.8,0.7-1.1c0-0.3-0.1-0.6-0.4-0.9
		c-0.2-0.2-0.5-0.3-0.8-0.3c-0.3,0-0.7,0.3-1.1,0.7L8.3,26L9.9,27.6z"/>
	<path fill="#00C0E6" d="M17.5,23.6l-6.2-9.4l4.8-3.2c0.9-0.6,1.6-1,2.2-1.1c0.6-0.2,1.1-0.1,1.7,0.1c0.6,0.2,1,0.6,1.4,1.2
		c0.3,0.5,0.5,1,0.6,1.6c0,0.5-0.1,1-0.3,1.5c-0.1,0.3-0.4,0.7-0.8,1c0.4-0.1,0.8-0.2,1-0.2c0.2,0,0.4,0.1,0.8,0.2
		c0.4,0.1,0.6,0.2,0.8,0.3l3.2,1.8l-3.3,2.2L20,17.8c-0.4-0.2-0.8-0.4-1-0.4c-0.3,0-0.6,0.1-0.9,0.3l-0.3,0.2l2.5,3.8L17.5,23.6z
		 M16.7,16.1l1.2-0.8c0.1-0.1,0.4-0.3,0.7-0.6c0.2-0.2,0.3-0.4,0.3-0.6c0-0.2,0-0.5-0.2-0.7c-0.2-0.3-0.5-0.5-0.8-0.5
		c-0.3,0-0.7,0.1-1.2,0.5l-1.3,0.8L16.7,16.1z"/>
	<path fill="#00C0E6" d="M23.2,6.9l8.7-3.5l0.9,2.2l-5.4,2.2L28,9.5l5-2l0.9,2.1l-5,2l0.8,2.1l5.6-2.2l1,2.4l-8.8,3.5L23.2,6.9z"/>
	<path fill="#00C0E6" d="M43.9,10.3l-3.9,0.7L39.9,13l-3.5,0.6l2.1-11.9l3.7-0.7l6.2,10.3l-3.6,0.7L43.9,10.3z M42.8,8.1l-2-3.8
		l-0.5,4.2L42.8,8.1z"/>
	<path fill="#00C0E6" d="M47.2,0.3l10.6,0l0,2.8l-3.6,0l0,8.5l-3.5,0l0-8.5l-3.6,0L47.2,0.3z"/>
	<path fill="#00C0E6" d="M61.2,0.7l3.4,0.7l-0.8,3.9l3.7,0.8l0.8-3.9L71.7,3l-2.4,11l-3.4-0.7l1-4.5L63.2,8l-1,4.5l-3.4-0.7
		L61.2,0.7z"/>
	<path fill="#00C0E6" d="M75.4,4.4l3.2,1.3l-4.2,10.5l-3.2-1.3L75.4,4.4z"/>
	<path fill="#00C0E6" d="M82.3,7.2l2.8,1.7l0.4,7.5l3.3-5.3l2.8,1.7l-5.9,9.6l-2.8-1.7l-0.4-7.5l-3.2,5.3l-2.8-1.7L82.3,7.2z"/>
	<path fill="#00C0E6" d="M93.9,24.5l1.6-1.7l3.9,3.7L96,30c-1.2-0.2-2.2-0.5-3-0.9c-0.7-0.4-1.5-0.9-2.3-1.7c-1-0.9-1.6-1.8-1.9-2.8
		s-0.3-1.9,0-2.8c0.3-1,0.8-1.9,1.7-2.7c0.9-0.9,1.8-1.5,2.8-1.8c1-0.3,2-0.3,3,0.1c0.8,0.3,1.7,0.9,2.6,1.7
		c0.9,0.9,1.5,1.6,1.8,2.2c0.3,0.6,0.4,1.2,0.4,1.8c0,0.6-0.2,1.3-0.6,1.9l-2.8-1.9c0.2-0.4,0.3-0.8,0.2-1.2
		c-0.1-0.4-0.3-0.8-0.7-1.1c-0.6-0.5-1.2-0.8-1.9-0.7c-0.7,0.1-1.4,0.5-2.2,1.3c-0.8,0.9-1.3,1.7-1.3,2.4c0,0.7,0.2,1.3,0.8,1.9
		c0.3,0.3,0.6,0.5,0.9,0.7c0.3,0.2,0.8,0.3,1.3,0.4l0.7-0.8L93.9,24.5z"/>
</g>
</svg>
