<?xml version="1.0" encoding="utf-8"?>
<!-- Generator: Adobe Illustrator 18.1.0, SVG Export Plug-In . SVG Version: 6.00 Build 0)  -->
<svg version="1.1" xmlns="http://www.w3.org/2000/svg" xmlns:xlink="http://www.w3.org/1999/xlink" x="0px" y="0px"
	 viewBox="0 0 42.3 42.5" enable-background="new 0 0 42.3 42.5" xml:space="preserve">
<g id="Layer_1">
</g>
<g id="View_Btns">
	<rect x="-406.7" y="-20.4" fill="none" width="658.9" height="173.9"/>
	<rect x="-406.7" y="-20.4" fill="none" width="658.9" height="173.9"/>
	<rect x="-406.7" y="-20.4" fill="none" width="658.9" height="173.9"/>
	<rect x="-406.7" y="-20.4" fill="none" width="658.9" height="173.9"/>
	<rect x="-469.8" y="-145" fill="none" width="658.9" height="173.9"/>
	<rect x="-406.7" y="37.5" fill="none" width="658.9" height="173.9"/>
	<rect x="-406.7" y="37.5" fill="none" width="658.9" height="173.9"/>
	<rect x="-406.7" y="37.5" fill="none" width="658.9" height="173.9"/>
	<rect x="-406.7" y="37.5" fill="none" width="658.9" height="173.9"/>
	<rect x="-468.6" y="-146" fill="none" width="658.9" height="173.9"/>
	<rect x="-405.5" y="36.5" fill="none" width="658.9" height="173.9"/>
	<rect x="-405.5" y="36.5" fill="none" width="658.9" height="173.9"/>
	<rect x="-405.5" y="36.5" fill="none" width="658.9" height="173.9"/>
	<rect x="-405.5" y="36.5" fill="none" width="658.9" height="173.9"/>
	<rect x="-471" y="-83.7" fill="none" width="658.9" height="173.9"/>
	<rect x="-469.8" y="-84.7" fill="none" width="658.9" height="173.9"/>
	<rect x="-469.8" y="-84.7" fill="none" width="658.9" height="173.9"/>
	<rect x="-468.6" y="-85.7" fill="none" width="658.9" height="173.9"/>
</g>
<g id="Get_Started_Btn" display="none">
</g>
<g id="Layer_4" display="none">
</g>
<g id="Nav_Content" display="none">
</g>
<g id="Start_Again_Btn" display="none">
</g>
<g id="Funding_Logos" display="none">
</g>
<g id="Action_Btn" display="none">
</g>
<g id="Reset_View" display="none">
</g>
<g id="Age_Area">
	<ellipse fill="#66901C" cx="21.2" cy="21.3" rx="21.2" ry="21.3"/>
	<rect x="6" y="18.9" fill="#FFFFFF" width="30.5" height="4.8"/>
</g>
</svg>
