<?xml version="1.0" encoding="utf-8"?>
<!-- Generator: Adobe Illustrator 18.1.0, SVG Export Plug-In . SVG Version: 6.00 Build 0)  -->
<svg version="1.1" id="Layer_1" xmlns="http://www.w3.org/2000/svg" xmlns:xlink="http://www.w3.org/1999/xlink" x="0px" y="0px"
	 viewBox="0 0 841.9 595.3" enable-background="new 0 0 841.9 595.3" xml:space="preserve">
<circle fill="#A02BF4" stroke="#FFFFFF" stroke-width="4" stroke-miterlimit="10" cx="420.4" cy="297.4" r="285"/>
<g>
	<path fill="#FFFFFF" d="M233.1,187.9h44.3l19.6,116.4l20.2-116.4H362L317.1,365h-40.9L233.1,187.9z"/>
	<path fill="#FFFFFF" d="M428.5,184.1h26l-58.3,201.2h-25.6L428.5,184.1z"/>
	<path fill="#FFFFFF" d="M557.7,361.8c4.7,8.3,11.3,12.4,19.7,12.4c5,0,10.3-2,16-6v32.2c-7.8,3.2-15.4,4.8-22.7,4.8
		c-10.6,0-19.2-2.9-25.8-8.7c-6.6-5.8-12.5-15.6-17.7-29.4c-19.2-1.8-34-11.2-44.4-28.2c-10.4-17-15.6-37.4-15.6-61.2
		c0-28.7,6.1-51.4,18.3-68s28-24.9,47.5-24.9c19.6,0,35.5,8.1,47.7,24.4c12.1,16.2,18.2,38.8,18.2,67.7c0,15.6-2,29.4-6,41.5
		c-4,12.1-8.9,21.3-14.7,27.6C572.3,352.4,565.5,357.7,557.7,361.8z M533.5,222.3c-8,0-14.3,4.9-18.7,14.8c-4.4,9.9-6.6,23-6.6,39.3
		c0,16.7,2.2,29.9,6.7,39.6s10.4,14.5,18,14.5c7.6,0,13.6-5,17.9-15c4.3-10,6.5-23.2,6.5-39.8c0-17.1-2.3-30.2-6.9-39.5
		C545.8,226.9,540.2,222.3,533.5,222.3z"/>
</g>
</svg>
