<?xml version="1.0" encoding="utf-8"?>
<!-- Generator: Adobe Illustrator 18.1.0, SVG Export Plug-In . SVG Version: 6.00 Build 0)  -->
<svg version="1.1" id="Layer_1" xmlns="http://www.w3.org/2000/svg" xmlns:xlink="http://www.w3.org/1999/xlink" x="0px" y="0px"
	 viewBox="0 0 106.4 106.8" enable-background="new 0 0 106.4 106.8" xml:space="preserve">
<circle fill="#0AC1E7" stroke="#FFFFFF" stroke-width="4" stroke-miterlimit="10" cx="53.6" cy="53.6" r="50.8"/>
<path fill="#C764A7" d="M23.3,83.3c10.6-4.8,17.8-7.7,26.8-5.2c1.4,0.4,2.9-0.9,2.8-2.6c-1-15-3.4-59-16.2-58.1
	C22,18.6,20.4,66.9,20.3,80.9C20.2,82.7,21.8,84,23.3,83.3z"/>
<path fill="#C764A7" d="M83.7,83.3c-10.6-4.8-17.8-7.7-26.8-5.2c-1.4,0.4-2.9-0.9-2.8-2.6c1-15,3.4-59,16.2-58.1
	c14.6,1.1,16.2,49.5,16.4,63.5C86.7,82.7,85.1,84,83.7,83.3z"/>
<g>
	<path d="M52.4,73.3c-0.3-0.7-0.6-1.6-0.8-2.5c-0.2-0.9-0.3-2-0.3-3.2c0-2.4,0.4-4.3,1.2-5.9c0.8-1.6,1.7-3.1,2.6-4.5
		c0.9-1.4,1.8-2.9,2.6-4.5c0.8-1.6,1.2-3.5,1.2-5.9c0-1,0-1.9-0.1-2.8c-0.1-0.8-0.3-1.5-0.6-2.1c-0.3-0.6-0.9-1-1.6-1.3
		c-0.7-0.3-1.7-0.5-3-0.5c-0.6,0-1.4,0.1-2.1,0.4c-0.8,0.3-1.3,0.7-1.6,1.3c0.4,0.2,0.6,0.9,0.6,1.9c0,1.2-0.3,2.1-1,2.8
		c-0.7,0.7-1.7,1-3,1c-2.1,0-3.2-1.5-3.2-4.4c0-2.7,1.1-4.8,3.3-6.1c2.2-1.4,5.3-2,9.1-2c1.9,0,3.7,0.1,5.3,0.4
		c1.7,0.3,3.2,0.9,4.4,1.7c1.3,0.9,2.2,2.1,3,3.6c0.7,1.6,1.1,3.6,1.1,6c0,2.1-0.3,4-1,5.5c-0.7,1.5-1.6,2.9-2.6,4.1
		s-2.2,2.3-3.5,3.2S60,61.6,59,62.5c-1.1,1-2,2-2.6,3.1c-0.7,1.1-1,2.4-1,3.9v3.7H52.4z M53.9,89.6c-3.9,0-5.9-1.8-5.9-5.5
		c0-3.7,2-5.5,5.9-5.5c3.7,0,5.5,1.8,5.5,5.5C59.5,87.7,57.6,89.6,53.9,89.6z"/>
</g>
</svg>
