<?xml version="1.0" encoding="utf-8"?>
<!-- Generator: Adobe Illustrator 18.1.0, SVG Export Plug-In . SVG Version: 6.00 Build 0)  -->
<svg version="1.1" id="Layer_1" xmlns="http://www.w3.org/2000/svg" xmlns:xlink="http://www.w3.org/1999/xlink" x="0px" y="0px"
	 viewBox="270.2 0 297.6 595.3" enable-background="new 270.2 0 297.6 595.3" xml:space="preserve">
<g id="Age_Area">
	<g>
		<g>
			<path fill="#FFC000" d="M361.9,521.2c0-15.3,6-28.2,15.3-39.9c5.5-6.8,9.8-14.8,13.1-23c3.6-8.5,1.1-17.2-6.3-23
				c-7.7-6-15.9-11.5-24.6-16.1c-40.5-21.9-65-54.9-71.3-100.3c-7.9-56.6,18.3-107.7,68.1-136.1c7.7-4.4,15.3-9,22.7-14.2
				c15.5-11.2,14.4-25.2,6.5-38.3c-2.7-4.9-6.8-9-10.4-13.4c-16.7-20.5-18.9-47.8-5.5-69.7c13.1-21.6,38-32,63.1-27.1
				c23.8,4.6,42.9,25.4,46.2,50.8c2.2,17.8-3.6,33.1-14.8,47c-5.2,6.6-9.6,13.9-13.1,21.3c-4.4,9.6-1.9,18.9,6.6,25.4
				c7.7,6,15.9,11.8,24.3,16.7c43.7,25.7,69.4,63.4,71.1,114.2c1.6,53.8-23.2,94.6-69.7,121.9c-7.7,4.4-15.6,9-22.4,14.5
				c-12,9.8-13.9,20-6.8,33.6c3,5.7,7.4,10.9,11.5,15.9c15,18.9,19.4,39.4,10.1,62c-9,22.1-26.5,34.4-49.5,36.4
				C388.9,583.7,361.6,553.9,361.9,521.2z M419.5,359.3c33.1,0.3,59.6-25.4,60.1-58.2c0.5-32-26.2-60.4-58.8-60.1
				c-39.6,0.3-60.1,32.5-59.9,58.8C361.3,333.1,386.2,359.1,419.5,359.3z"/>
		</g>
		<g>
			<path fill="none" stroke="#FFFFFF" stroke-width="16" stroke-miterlimit="10" d="M420.9,588.9c-18,0-35-7.1-47.6-19.7
				c-12.6-12.8-19.7-30.3-19.7-48.1c0-15.6,5.7-30.3,16.9-44.8c4.6-6,8.7-13.1,12-21c2.2-5.2,0.8-9.6-3.6-13.1
				c-7.7-6-15.6-11.2-23.5-15.3c-43.5-23.5-69.1-59.3-75.7-106.6c-8.2-59,19.4-114.2,72.2-144.3c8.2-4.6,15.3-9,21.9-13.9
				c7.1-5.2,13.1-12.3,4.4-27.6c-1.6-3-4.4-6-6.8-9c-0.8-1.1-1.6-2.2-2.7-3c-19.1-23.3-21.3-54.5-6.3-79.1
				c12.8-20.5,34.4-32.5,58.2-32.5c4.6,0,9.3,0.5,13.9,1.4c27.3,5.5,48.9,29.2,52.7,57.9c2.5,18.9-3,36.4-16.4,53.3
				c-4.9,6-9,12.8-12,19.7c-2.7,6-1.4,11.2,4.1,15.6c7.1,5.7,15,11.2,23.5,16.1c48.4,28.4,73.5,69.1,74.9,121.1
				c1.6,56-23.2,99.5-73.8,129.3l-2.5,1.4c-6.8,4.1-13.1,7.7-18.9,12.3c-9,7.4-10.1,13.1-4.6,23.5c2.2,4.4,5.7,8.5,9.3,12.8l1.4,1.6
				c17.5,21.9,21.3,45.4,11.5,70.2c-10.1,24.3-30.1,39.1-56.6,41.5C425,588.9,422.8,588.9,420.9,588.9z M420.9,249.2
				c-14.8,0-27.3,5.2-36.9,14.8c-9.3,9.6-14.8,22.7-14.8,35.5c0.3,29.2,21.9,51.4,50.3,51.7h0.5c28.4,0,50.8-22.1,51.4-50.3
				c0.3-13.4-5.2-26.5-14.8-36.4c-9.6-9.8-22.1-15.3-35.3-15.3L420.9,249.2L420.9,249.2z"/>
		</g>
	</g>
	<circle fill="#FFFFFF" cx="419.9" cy="299.6" r="67.2"/>
</g>
</svg>
