<?xml version="1.0" encoding="utf-8"?>
<!-- Generator: Adobe Illustrator 18.1.0, SVG Export Plug-In . SVG Version: 6.00 Build 0)  -->
<svg version="1.1" id="Layer_1" xmlns="http://www.w3.org/2000/svg" xmlns:xlink="http://www.w3.org/1999/xlink" x="0px" y="0px"
	 viewBox="0 0 106.4 119" enable-background="new 0 0 106.4 119" xml:space="preserve">
<circle fill="#6CACDE" stroke="#FFFFFF" stroke-width="4" stroke-miterlimit="10" cx="53.1" cy="66.1" r="50.8"/>
<g>
	<path fill="#00C0E6" d="M24.6,15.5L21,17.2l0.3,1.9l-3.2,1.6L17,8.7L20.4,7l8.8,8.2l-3.3,1.6L24.6,15.5z M22.8,13.6l-2.9-3.1
		l0.7,4.2L22.8,13.6z"/>
	<path fill="#00C0E6" d="M28.2,11.7l3.1-1.1c0.2,0.5,0.5,0.8,0.8,1.1c0.5,0.3,1,0.4,1.7,0.2c0.5-0.1,0.8-0.4,1-0.7
		c0.2-0.3,0.2-0.6,0.2-0.9c-0.1-0.3-0.3-0.5-0.6-0.6s-0.9-0.2-1.9-0.1c-1.6,0.1-2.7,0-3.5-0.4c-0.8-0.4-1.3-1-1.6-1.8
		c-0.2-0.6-0.2-1.1,0-1.7c0.2-0.6,0.5-1.1,1.1-1.6C29,3.6,29.8,3.2,31,2.8c1.4-0.4,2.5-0.5,3.4-0.2s1.6,1,2,2.1l-3.1,1.1
		C33,5.4,32.8,5.1,32.4,5c-0.3-0.1-0.7-0.1-1.2,0c-0.4,0.1-0.7,0.3-0.8,0.5s-0.2,0.5-0.1,0.7c0.1,0.2,0.2,0.3,0.4,0.4
		c0.2,0.1,0.6,0.1,1.2,0.1c1.6-0.1,2.7-0.1,3.4,0s1.3,0.4,1.7,0.8c0.4,0.4,0.7,0.9,0.9,1.5c0.2,0.7,0.2,1.4,0,2.1s-0.6,1.3-1.2,1.8
		c-0.6,0.5-1.4,0.9-2.5,1.2c-1.8,0.5-3.2,0.6-4.1,0.1C29.3,13.6,28.6,12.8,28.2,11.7z"/>
	<path fill="#00C0E6" d="M38.2,1.1l10.5-1.3L49,2.6L45.5,3l1,8.4L43,11.9l-1-8.4l-3.5,0.4L38.2,1.1z"/>
	<path fill="#00C0E6" d="M52-0.3L55.4,0l-0.3,3.9l3.8,0.3l0.3-3.9l3.5,0.3l-0.9,11.2l-3.5-0.3L58.7,7l-3.8-0.3l-0.3,4.5L51.1,11
		L52-0.3z"/>
	<path fill="#00C0E6" d="M66.9,1.2l4.4,1.4l-0.3,7.1l3.7-6L79,5l-3.3,10.8L73,14.9l2.5-8.2l-4.6,7.6l-2.5-0.8l0.4-8.9l-2.5,8.2
		L63.6,12L66.9,1.2z"/>
	<path fill="#00C0E6" d="M84.1,18.3l-3.5-1.9l-1.4,1.4L76.1,16l9.2-7.8l3.3,1.8L86.9,22l-3.2-1.8L84.1,18.3z M84.6,15.8l0.9-4.1
		l-3,2.9L84.6,15.8z"/>
</g>
</svg>
