<?xml version="1.0" encoding="utf-8"?>
<!-- Generator: Adobe Illustrator 18.1.0, SVG Export Plug-In . SVG Version: 6.00 Build 0)  -->
<svg version="1.1" id="Layer_1" xmlns="http://www.w3.org/2000/svg" xmlns:xlink="http://www.w3.org/1999/xlink" x="0px" y="0px"
	 viewBox="0 0 841.9 595.3" enable-background="new 0 0 841.9 595.3" xml:space="preserve">
<circle fill="#00EFDE" stroke="#FFFFFF" stroke-width="4" stroke-miterlimit="10" cx="420.4" cy="297.4" r="285"/>
<g>
	<path fill="#FFFFFF" d="M236.4,199.5h63.1c16.3,0,29,4.4,38,13.1c9,8.8,13.5,21.2,13.5,37.3c0,8.4-1.5,16.8-4.4,25.2
		c-3,8.4-9.2,15.7-18.7,22c-9.5,6.2-21.4,9.3-35.8,9.3H278v70.2h-41.6V199.5z M278,233.7v38h9.1c6.7,0,12.1-1.8,16.1-5.3
		c4-3.5,6-8.4,6-14.8c0-6-1.5-10.5-4.6-13.5c-3.1-3-7.7-4.4-13.8-4.4H278z"/>
	<path fill="#FFFFFF" d="M370.1,262.6c13.8-6.5,26.9-9.8,39.2-9.8c9.1,0,17.1,1.6,23.9,4.8c6.8,3.2,12.5,8.4,17.2,15.6
		c4.7,7.2,7,16.4,7,27.5v40.6c0,11.8,2.4,23.5,7.2,35.2h-40.4c-1.5-3.4-2.8-7.2-3.7-11.5c-4,4.7-8.1,8.3-12.5,10.7
		c-4.4,2.4-9,3.6-13.8,3.6c-9.4,0-17.8-3.7-25.2-11.2c-7.4-7.5-11.1-16.6-11.1-27.4c0-24.2,20.9-39,62.6-44.3
		c-0.9-4.4-3.2-7.7-6.9-9.9c-3.6-2.2-8.6-3.3-15-3.3c-9.3,0-18.9,3.8-28.7,11.4V262.6z M420.6,316.6c-16.9,1.5-25.4,7.9-25.4,19
		c0,4.2,1.3,7.7,3.8,10.6c2.5,2.9,5.5,4.3,9,4.3c4.1,0,7.2-1.7,9.3-5.2s3.2-7.9,3.2-13.1V316.6z"/>
	<path fill="#FFFFFF" d="M536.3,196.6c21.4,0,38.3,8.1,50.7,24.2c12.4,16.2,18.5,38.3,18.5,66.3c0,28.1-6.2,50.5-18.7,67.2
		c-12.4,16.7-28.6,25.1-48.4,25.1c-20.6,0-36.5-8.7-47.7-26c-11.3-17.3-16.9-39-16.9-64.9c0-17.9,2.7-34,8.3-48.3
		c5.5-14.3,13.2-25.1,23.1-32.5C515.1,200.3,525.4,196.6,536.3,196.6z M540.7,233.9c-8.3,0-14.6,4.8-19,14.3
		c-4.4,9.6-6.6,22.6-6.6,39.2c0,16.8,2.1,30.1,6.4,39.7c4.3,9.6,10.2,14.4,17.7,14.4c7.4,0,13.4-5,17.9-14.9
		c4.5-9.9,6.7-23.1,6.7-39.6c0-17.1-2.3-30.2-6.8-39.4C552.5,238.5,547.1,233.9,540.7,233.9z"/>
</g>
<g>
	<path fill="#FFFFFF" d="M612.7,343.2c6.8-2.8,12.9-4.2,18.3-4.2c7,0,12.6,1.9,16.9,5.7c4.3,3.8,6.4,8.7,6.4,14.7
		c0,4.7-1.2,8.8-3.5,12.2c-2.4,3.4-6.9,7.9-13.5,13.4c-4.8,4-7.8,6.9-9,8.7c-1.2,1.8-1.9,4.1-2,6.6h29.3v14h-46.2v-8.9
		c0-7.1,1.1-12.7,3.3-16.7c2.2-4,7.2-9.2,14.8-15.6c3.6-3.1,6-5.4,7.1-6.9c1.1-1.5,1.6-3.1,1.6-4.8c0-2.2-0.9-4-2.6-5.5
		c-1.7-1.5-3.9-2.2-6.7-2.2c-4.1,0-8.8,2-14.1,5.9V343.2z"/>
</g>
</svg>
