<?xml version="1.0" encoding="utf-8"?>
<!-- Generator: Adobe Illustrator 18.1.0, SVG Export Plug-In . SVG Version: 6.00 Build 0)  -->
<svg version="1.1" id="Layer_1" xmlns="http://www.w3.org/2000/svg" xmlns:xlink="http://www.w3.org/1999/xlink" x="0px" y="0px"
	 viewBox="0 0 106.8 118.8" enable-background="new 0 0 106.8 118.8" xml:space="preserve">
<circle fill="#67C9CF" stroke="#FFFFFF" stroke-width="4" stroke-miterlimit="10" cx="53.5" cy="65.9" r="50.8"/>
<g>
	<path fill="#00C0E6" d="M14.5,20.8l2.6-2c0.4,0.4,0.7,0.7,1,0.8c0.6,0.2,1.1,0.1,1.7-0.3c0.4-0.3,0.7-0.6,0.8-0.9
		c0.1-0.3,0.1-0.6-0.1-0.9c-0.2-0.2-0.4-0.4-0.8-0.4s-1,0.1-1.8,0.4c-1.5,0.6-2.6,0.8-3.5,0.7c-0.9-0.1-1.5-0.5-2-1.3
		c-0.3-0.5-0.5-1-0.5-1.6c0-0.6,0.2-1.2,0.6-1.9s1.1-1.3,2.1-1.9c1.2-0.8,2.3-1.2,3.2-1.2c0.9,0,1.8,0.5,2.5,1.4l-2.6,2
		c-0.4-0.4-0.7-0.6-1.1-0.6s-0.7,0.1-1.2,0.4c-0.3,0.2-0.5,0.5-0.6,0.7c-0.1,0.3,0,0.5,0.1,0.7c0.1,0.1,0.3,0.2,0.5,0.3
		c0.2,0,0.6-0.1,1.2-0.3c1.4-0.6,2.5-0.9,3.3-1c0.7-0.1,1.4,0,1.9,0.2s1,0.6,1.3,1.1c0.4,0.6,0.6,1.3,0.6,2c0,0.7-0.2,1.4-0.6,2.1
		c-0.4,0.7-1.1,1.3-2,1.9c-1.6,1.1-2.9,1.5-3.9,1.3S15.3,21.7,14.5,20.8z"/>
	<path fill="#00C0E6" d="M22.1,7l4.3-1.6l4.1,5.8l-0.8-7l4.3-1.6l4,10.5l-2.7,1l-3.1-8l1,8.8l-2.4,0.9l-5.1-7.2l3.1,8l-2.7,1L22.1,7
		z"/>
	<path fill="#00C0E6" d="M38.3,7.2c-0.3-1.8,0-3.3,0.9-4.5c0.9-1.2,2.2-1.9,4-2.1c1.9-0.3,3.4,0,4.5,0.9c1.1,0.9,1.9,2.2,2.1,4
		c0.2,1.3,0.1,2.4-0.2,3.3c-0.3,0.9-0.9,1.6-1.6,2.2c-0.8,0.6-1.8,1-3,1.1c-1.3,0.2-2.3,0.1-3.2-0.1c-0.9-0.3-1.6-0.8-2.3-1.6
		C38.9,9.6,38.5,8.5,38.3,7.2z M41.8,6.7c0.2,1.1,0.5,1.9,1,2.3c0.5,0.4,1.1,0.6,1.8,0.5c0.7-0.1,1.3-0.4,1.6-1
		c0.3-0.5,0.4-1.4,0.2-2.7c-0.2-1.1-0.5-1.8-1-2.2c-0.5-0.4-1.1-0.6-1.8-0.5c-0.7,0.1-1.2,0.4-1.6,1C41.7,4.8,41.6,5.6,41.8,6.7z"/>
	<path fill="#00C0E6" d="M52.7-0.1l3.5,0.2l-0.3,4.3l3.9-4l4.6,0.3l-4.4,4l3.9,7.3l-4.3-0.3l-2.1-4.8l-1.9,1.8l-0.2,2.7L52,11.1
		L52.7-0.1z"/>
	<path fill="#00C0E6" d="M67.2,1.4l3.4,0.8l-2.5,11l-3.4-0.8L67.2,1.4z"/>
	<path fill="#00C0E6" d="M74.5,3l3,1.2l1.6,7.4l2.3-5.8l3,1.2l-4.2,10.4l-3-1.2l-1.6-7.3l-2.3,5.7l-3-1.2L74.5,3z"/>
	<path fill="#00C0E6" d="M88.7,18.3l1.4-1.9l4.4,3.1l-2.8,3.9c-1.2,0-2.3-0.2-3.1-0.4s-1.6-0.7-2.5-1.3c-1.1-0.8-1.8-1.6-2.3-2.5
		c-0.4-0.9-0.6-1.8-0.4-2.8c0.2-1,0.6-2,1.3-2.9c0.7-1,1.5-1.7,2.5-2.2c0.9-0.4,2-0.6,3-0.4c0.8,0.2,1.8,0.6,2.8,1.4
		c1,0.7,1.7,1.4,2.1,1.9c0.4,0.5,0.6,1.1,0.6,1.8c0.1,0.6,0,1.3-0.3,2l-3.1-1.5c0.1-0.4,0.1-0.8,0-1.2c-0.1-0.4-0.4-0.7-0.8-1
		c-0.6-0.4-1.3-0.6-1.9-0.4c-0.7,0.2-1.4,0.7-2,1.6c-0.7,1-1,1.8-1,2.5s0.4,1.3,1.1,1.8c0.3,0.2,0.7,0.4,1,0.5s0.8,0.2,1.3,0.2
		l0.6-0.9L88.7,18.3z"/>
</g>
</svg>
