<?xml version="1.0" encoding="utf-8"?>
<!-- Generator: Adobe Illustrator 18.1.0, SVG Export Plug-In . SVG Version: 6.00 Build 0)  -->
<svg version="1.1" xmlns="http://www.w3.org/2000/svg" xmlns:xlink="http://www.w3.org/1999/xlink" x="0px" y="0px"
	 viewBox="0 0 110 217.8" enable-background="new 0 0 110 217.8" xml:space="preserve">
<g id="Layer_1">
</g>
<g id="View_Btns">
</g>
<g id="Get_Started_Btn" display="none">
</g>
<g id="Layer_4" display="none">
</g>
<g id="Nav_Content" display="none">
</g>
<g id="Start_Again_Btn" display="none">
</g>
<g id="Funding_Logos" display="none">
</g>
<g id="Action_Btn" display="none">
</g>
<g id="Reset_View" display="none">
</g>
<g id="Age_Area">
	<circle fill="#FFFFFF" cx="54.7" cy="109.5" r="24.6"/>
	<g>
		<g>
			<path fill="#66901C" d="M33.6,189.8c0-5.6,2.2-10.3,5.6-14.6c2-2.5,3.6-5.4,4.8-8.4c1.3-3.1,0.4-6.3-2.3-8.4
				c-2.8-2.2-5.8-4.2-9-5.9c-14.8-8-23.8-20.1-26.1-36.7c-2.9-20.7,6.7-39.4,24.9-49.8c2.8-1.6,5.6-3.3,8.3-5.2
				c5.7-4.1,5.3-9.2,2.4-14c-1-1.8-2.5-3.3-3.8-4.9c-6.1-7.5-6.9-17.5-2-25.5c4.8-7.9,13.9-11.7,23.1-9.9
				c8.7,1.7,15.7,9.3,16.9,18.6c0.8,6.5-1.3,12.1-5.4,17.2c-1.9,2.4-3.5,5.1-4.8,7.8c-1.6,3.5-0.7,6.9,2.4,9.3
				c2.8,2.2,5.8,4.3,8.9,6.1c16,9.4,25.4,23.2,26,41.8c0.6,19.7-8.5,34.6-25.5,44.6c-2.8,1.6-5.7,3.3-8.2,5.3
				c-4.4,3.6-5.1,7.3-2.5,12.3c1.1,2.1,2.7,4,4.2,5.8c5.5,6.9,7.1,14.4,3.7,22.7c-3.3,8.1-9.7,12.6-18.1,13.3
				C43.5,212.7,33.5,201.8,33.6,189.8z M54.7,130.6c12.1,0.1,21.8-9.3,22-21.3c0.2-11.7-9.6-22.1-21.5-22
				c-14.5,0.1-22,11.9-21.9,21.5C33.4,121,42.5,130.5,54.7,130.6z"/>
		</g>
		<g>
			<path fill="none" stroke="#FFFFFF" stroke-width="6" stroke-miterlimit="10" d="M55.2,214.6c-6.6,0-12.8-2.6-17.4-7.2
				c-4.6-4.7-7.2-11.1-7.2-17.6c0-5.7,2.1-11.1,6.2-16.4c1.7-2.2,3.2-4.8,4.4-7.7c0.8-1.9,0.3-3.5-1.3-4.8c-2.8-2.2-5.7-4.1-8.6-5.6
				c-15.9-8.6-25.3-21.7-27.7-39c-3-21.6,7.1-41.8,26.4-52.8c3-1.7,5.6-3.3,8-5.1c2.6-1.9,4.8-4.5,1.6-10.1
				c-0.6-1.1-1.6-2.2-2.5-3.3c-0.3-0.4-0.6-0.8-1-1.1c-7-8.5-7.8-19.9-2.3-28.9C38.5,7.5,46.4,3.1,55.1,3.1c1.7,0,3.4,0.2,5.1,0.5
				c10,2,17.9,10.7,19.3,21.2c0.9,6.9-1.1,13.3-6,19.5c-1.8,2.2-3.3,4.7-4.4,7.2c-1,2.2-0.5,4.1,1.5,5.7c2.6,2.1,5.5,4.1,8.6,5.9
				c17.7,10.4,26.9,25.3,27.4,44.3c0.6,20.5-8.5,36.4-27,47.3l-0.9,0.5c-2.5,1.5-4.8,2.8-6.9,4.5c-3.3,2.7-3.7,4.8-1.7,8.6
				c0.8,1.6,2.1,3.1,3.4,4.7l0.5,0.6c6.4,8,7.8,16.6,4.2,25.7c-3.6,8.9-11,14.3-20.7,15.2C56.7,214.6,55.9,214.6,55.2,214.6z
				 M55.2,90.3c-5.4,0-10,1.9-13.5,5.4c-3.4,3.5-5.4,8.3-5.4,13c0.1,10.7,8,18.8,18.4,18.9l0.2,0c10.4,0,18.6-8.1,18.8-18.4
				c0.1-4.9-1.9-9.7-5.4-13.3c-3.5-3.6-8.1-5.6-12.9-5.6H55.2z"/>
		</g>
	</g>
</g>
</svg>
