<?xml version="1.0" encoding="utf-8"?>
<!-- Generator: Adobe Illustrator 18.1.0, SVG Export Plug-In . SVG Version: 6.00 Build 0)  -->
<svg version="1.1" id="Layer_1" xmlns="http://www.w3.org/2000/svg" xmlns:xlink="http://www.w3.org/1999/xlink" x="0px" y="0px"
	 viewBox="0 0 841.9 595.3" enable-background="new 0 0 841.9 595.3" xml:space="preserve">
<g id="Layer_1_1_">
</g>
<g id="View_Btns">
	<rect x="-5571.8" y="-285.7" fill="none" width="9228.9" height="2435.7"/>
	<rect x="-5571.8" y="-285.7" fill="none" width="9228.9" height="2435.7"/>
	<rect x="-5571.8" y="-285.7" fill="none" width="9228.9" height="2435.7"/>
	<rect x="-5571.8" y="-285.7" fill="none" width="9228.9" height="2435.7"/>
	<rect x="-6455.6" y="-2031" fill="none" width="9228.9" height="2435.7"/>
	<rect x="-5571.8" y="525.2" fill="none" width="9228.9" height="2435.7"/>
	<rect x="-5571.8" y="525.2" fill="none" width="9228.9" height="2435.7"/>
	<rect x="-5571.8" y="525.2" fill="none" width="9228.9" height="2435.7"/>
	<rect x="-5571.8" y="525.2" fill="none" width="9228.9" height="2435.7"/>
	<rect x="-6438.8" y="-2045" fill="none" width="9228.9" height="2435.7"/>
	<rect x="-5555" y="511.2" fill="none" width="9228.9" height="2435.7"/>
	<rect x="-5555" y="511.2" fill="none" width="9228.9" height="2435.7"/>
	<rect x="-5555" y="511.2" fill="none" width="9228.9" height="2435.7"/>
	<rect x="-5555" y="511.2" fill="none" width="9228.9" height="2435.7"/>
	<rect x="-6472.4" y="-1172.4" fill="none" width="9228.9" height="2435.7"/>
	<rect x="-6455.6" y="-1186.4" fill="none" width="9228.9" height="2435.7"/>
	<rect x="-6455.6" y="-1186.4" fill="none" width="9228.9" height="2435.7"/>
	<rect x="-6438.8" y="-1200.4" fill="none" width="9228.9" height="2435.7"/>
</g>
<g id="Get_Started_Btn" display="none">
</g>
<g id="Layer_4" display="none">
</g>
<g id="Nav_Content" display="none">
</g>
<g id="Start_Again_Btn" display="none">
</g>
<g id="Funding_Logos" display="none">
</g>
<g id="Action_Btn" display="none">
</g>
<g id="Reset_View" display="none">
</g>
<ellipse fill="#66901C" cx="421.6" cy="298.3" rx="296.9" ry="298.3"/>
<rect x="356.7" y="192.4" transform="matrix(-0.7071 0.7071 -0.7071 -0.7071 984.4999 44.284)" fill="#FFFFFF" width="252.7" height="67.2"/>
<rect x="220.8" y="190.4" transform="matrix(-0.7071 -0.7071 0.7071 -0.7071 439.191 629.908)" fill="#FFFFFF" width="258.5" height="67.2"/>
<rect x="383" y="246" fill="#FFFFFF" width="67.2" height="307.3"/>
</svg>
