<?xml version="1.0" encoding="utf-8"?>
<!-- Generator: Adobe Illustrator 18.1.0, SVG Export Plug-In . SVG Version: 6.00 Build 0)  -->
<svg version="1.1" id="Layer_1" xmlns="http://www.w3.org/2000/svg" xmlns:xlink="http://www.w3.org/1999/xlink" x="0px" y="0px"
	 viewBox="0 0 841.9 595.3" enable-background="new 0 0 841.9 595.3" xml:space="preserve">
<g id="Layer_1_1_">
</g>
<g id="View_Btns">
	<rect x="-5571.8" y="-285.7" fill="none" width="9228.9" height="2435.7"/>
	<rect x="-5571.8" y="-285.7" fill="none" width="9228.9" height="2435.7"/>
	<rect x="-5571.8" y="-285.7" fill="none" width="9228.9" height="2435.7"/>
	<rect x="-5571.8" y="-285.7" fill="none" width="9228.9" height="2435.7"/>
	<rect x="-6455.6" y="-2031" fill="none" width="9228.9" height="2435.7"/>
	<rect x="-5571.8" y="525.2" fill="none" width="9228.9" height="2435.7"/>
	<rect x="-5571.8" y="525.2" fill="none" width="9228.9" height="2435.7"/>
	<rect x="-5571.8" y="525.2" fill="none" width="9228.9" height="2435.7"/>
	<rect x="-5571.8" y="525.2" fill="none" width="9228.9" height="2435.7"/>
	<rect x="-6438.8" y="-2045" fill="none" width="9228.9" height="2435.7"/>
	<rect x="-5555" y="511.2" fill="none" width="9228.9" height="2435.7"/>
	<rect x="-5555" y="511.2" fill="none" width="9228.9" height="2435.7"/>
	<rect x="-5555" y="511.2" fill="none" width="9228.9" height="2435.7"/>
	<rect x="-5555" y="511.2" fill="none" width="9228.9" height="2435.7"/>
	<rect x="-6472.4" y="-1172.4" fill="none" width="9228.9" height="2435.7"/>
	<rect x="-6455.6" y="-1186.4" fill="none" width="9228.9" height="2435.7"/>
	<rect x="-6455.6" y="-1186.4" fill="none" width="9228.9" height="2435.7"/>
	<rect x="-6438.8" y="-1200.4" fill="none" width="9228.9" height="2435.7"/>
</g>
<g id="Get_Started_Btn" display="none">
</g>
<g id="Layer_4" display="none">
</g>
<g id="Nav_Content" display="none">
</g>
<g id="Start_Again_Btn" display="none">
</g>
<g id="Funding_Logos" display="none">
</g>
<g id="Action_Btn" display="none">
</g>
<g id="Reset_View" display="none">
</g>
<ellipse fill="#66901C" cx="421.6" cy="298.3" rx="296.9" ry="298.3"/>
<g>
	<path fill="#FFFFFF" d="M592.3,292.3c0,127.4-77.4,194.9-171.8,194.9c-97.7,0-166.4-75.8-166.4-187.8c0-117.5,73-194.4,171.8-194.4
		C526.9,105.1,592.3,182.5,592.3,292.3z M305.1,298.3c0,79.1,42.8,149.9,118,149.9c75.8,0,118.6-69.7,118.6-153.7
		c0-73.6-38.4-150.4-118-150.4C344.6,144,305.1,217.1,305.1,298.3z"/>
</g>
</svg>
