<?xml version="1.0" encoding="utf-8"?>
<!-- Generator: Adobe Illustrator 18.1.0, SVG Export Plug-In . SVG Version: 6.00 Build 0)  -->
<svg version="1.1" xmlns="http://www.w3.org/2000/svg" xmlns:xlink="http://www.w3.org/1999/xlink" x="0px" y="0px"
	 viewBox="0 0 241.8 241.6" enable-background="new 0 0 241.8 241.6" xml:space="preserve">
<g id="Layer_1">
</g>
<g id="View_Btns">
	<rect x="-144.4" y="-146.7" fill="none" width="658.9" height="173.9"/>
	<rect x="-144.4" y="-88.8" fill="none" width="658.9" height="173.9"/>
	<rect x="-144.4" y="-88.8" fill="none" width="658.9" height="173.9"/>
	<rect x="-144.4" y="-88.8" fill="none" width="658.9" height="173.9"/>
	<rect x="-144.4" y="-88.8" fill="none" width="658.9" height="173.9"/>
	<rect x="-144.4" y="-33.3" fill="none" width="658.9" height="173.9"/>
	<rect x="-144.4" y="-33.3" fill="none" width="658.9" height="173.9"/>
	<rect x="-144.4" y="-33.3" fill="none" width="658.9" height="173.9"/>
	<rect x="-144.4" y="-33.3" fill="none" width="658.9" height="173.9"/>
	<rect x="-144.4" y="-30.9" fill="none" width="658.9" height="173.9"/>
	<circle fill="#569D92" stroke="#000000" stroke-miterlimit="10" cx="121.7" cy="122" r="116.8"/>
	<path fill="#873862" d="M0,120.8C0,53.8,54.4-0.2,121.6,0c67.6,0.2,120.7,56.2,120.2,121.5c-0.5,66.5-54.2,119.8-120.8,120.1
		C57.8,242,0.4,190.9,0,120.8z M121.5,7.3C58.5,7.2,7.6,57.6,7.4,120.2c-0.2,63.1,50.6,114.4,113.6,114.2
		c62.3-0.2,113.5-49.8,113.4-113.7C234.4,55.4,181.5,7.4,121.5,7.3z"/>
</g>
<g id="Get_Started_Btn" display="none">
	<path display="inline" fill="#49485A" d="M243,120.6c-0.1,67.2-54.2,121.3-121.4,121.5C53.8,242.3-0.6,187.5-0.4,119.3
		c0.2-66.8,55-121.4,122-121C194.4-1.3,244.4,58.9,243,120.6z"/>
</g>
<g id="Layer_4" display="none">
</g>
<g id="Nav_Content" display="none">
</g>
<g id="Start_Again_Btn" display="none">
</g>
<g id="Funding_Logos" display="none">
</g>
<g id="Action_Btn" display="none">
</g>
<g id="Reset_View" display="none">
</g>
<g id="Age_Area">
</g>
</svg>
