<?xml version="1.0" encoding="utf-8"?>
<!-- Generator: Adobe Illustrator 18.1.0, SVG Export Plug-In . SVG Version: 6.00 Build 0)  -->
<svg version="1.1" xmlns="http://www.w3.org/2000/svg" xmlns:xlink="http://www.w3.org/1999/xlink" x="0px" y="0px"
	 viewBox="0 0 42.5 42.5" enable-background="new 0 0 42.5 42.5" xml:space="preserve">
<g id="Layer_1">
</g>
<g id="View_Btns">
	<rect x="-625.9" y="-145" fill="none" width="658.9" height="173.9"/>
	<rect x="-562.9" y="37.5" fill="none" width="658.9" height="173.9"/>
	<rect x="-562.9" y="37.5" fill="none" width="658.9" height="173.9"/>
	<rect x="-562.9" y="37.5" fill="none" width="658.9" height="173.9"/>
	<rect x="-562.9" y="37.5" fill="none" width="658.9" height="173.9"/>
	<rect x="-625.9" y="-87.1" fill="none" width="658.9" height="173.9"/>
	<rect x="-624.7" y="-88" fill="none" width="658.9" height="173.9"/>
	<rect x="-627.2" y="-25.8" fill="none" width="658.9" height="173.9"/>
	<rect x="-625.9" y="-26.8" fill="none" width="658.9" height="173.9"/>
	<rect x="-625.9" y="-26.8" fill="none" width="658.9" height="173.9"/>
	<rect x="-624.7" y="-27.7" fill="none" width="658.9" height="173.9"/>
</g>
<g id="Get_Started_Btn" display="none">
</g>
<g id="Layer_4" display="none">
</g>
<g id="Nav_Content" display="none">
</g>
<g id="Start_Again_Btn" display="none">
</g>
<g id="Funding_Logos" display="none">
</g>
<g id="Action_Btn" display="none">
</g>
<g id="Reset_View" display="none">
</g>
<g id="Age_Area">
	<ellipse fill="#239DBF" cx="21.3" cy="21.3" rx="21.2" ry="21.3"/>
	
		<rect x="8.6" y="13.5" transform="matrix(0.6038 0.7972 -0.7972 0.6038 19.2231 -6.9992)" fill="#FFFFFF" width="16.1" height="4.8"/>
	<rect x="19.7" y="18.9" fill="#FFFFFF" width="3.4" height="4.8"/>
	<rect x="28.9" y="8" fill="#FFFFFF" width="4.8" height="26.5"/>
	<rect x="8.9" y="8" fill="#FFFFFF" width="4.8" height="26.5"/>
	
		<rect x="18" y="13.5" transform="matrix(-0.6038 0.7972 -0.7972 -0.6038 54.3262 4.6709)" fill="#FFFFFF" width="16.1" height="4.8"/>
</g>
</svg>
