<?xml version="1.0" encoding="utf-8"?>
<!-- Generator: Adobe Illustrator 18.1.0, SVG Export Plug-In . SVG Version: 6.00 Build 0)  -->
<svg version="1.1" xmlns="http://www.w3.org/2000/svg" xmlns:xlink="http://www.w3.org/1999/xlink" x="0px" y="0px"
	 viewBox="0 0 97.5 205.5" enable-background="new 0 0 97.5 205.5" xml:space="preserve">
<g id="Layer_1">
</g>
<g id="View_Btns">
</g>
<g id="Get_Started_Btn" display="none">
</g>
<g id="Layer_4" display="none">
</g>
<g id="Nav_Content" display="none">
</g>
<g id="Start_Again_Btn" display="none">
</g>
<g id="Funding_Logos" display="none">
</g>
<g id="Action_Btn" display="none">
</g>
<g id="Reset_View" display="none">
</g>
<g id="Age_Area">
	<path fill="#4A4A5B" d="M27.5,183.7c0-5.6,2.2-10.3,5.6-14.6c2-2.5,3.6-5.4,4.8-8.4c1.3-3.1,0.4-6.3-2.3-8.4
		c-2.8-2.2-5.8-4.2-9-5.9c-14.8-8-23.8-20.1-26.1-36.7C-2.4,89.1,7.2,70.4,25.4,60c2.8-1.6,5.6-3.3,8.3-5.2c5.7-4.1,5.3-9.2,2.4-14
		c-1-1.8-2.5-3.3-3.8-4.9c-6.1-7.5-6.9-17.5-2-25.5c4.8-7.9,13.9-11.7,23.1-9.9c8.7,1.7,15.7,9.3,16.9,18.6
		c0.8,6.5-1.3,12.1-5.4,17.2c-1.9,2.4-3.5,5.1-4.8,7.8c-1.6,3.5-0.7,6.9,2.4,9.3c2.8,2.2,5.8,4.3,8.9,6.1c16,9.4,25.4,23.2,26,41.8
		C98,121.1,89,135.9,72,145.9c-2.8,1.6-5.7,3.3-8.2,5.3c-4.4,3.6-5.1,7.3-2.5,12.3c1.1,2.1,2.7,4,4.2,5.8c5.5,6.9,7.1,14.4,3.7,22.7
		c-3.3,8.1-9.7,12.6-18.1,13.3C37.4,206.6,27.4,195.7,27.5,183.7z M48.5,124.5c12.1,0.1,21.8-9.3,22-21.3c0.2-11.7-9.6-22.1-21.5-22
		c-14.5,0.1-22,11.9-21.9,21.5C27.3,114.9,36.4,124.4,48.5,124.5z"/>
</g>
</svg>
