<?xml version="1.0" encoding="utf-8"?>
<!-- Generator: Adobe Illustrator 18.1.0, SVG Export Plug-In . SVG Version: 6.00 Build 0)  -->
<svg version="1.1" xmlns="http://www.w3.org/2000/svg" xmlns:xlink="http://www.w3.org/1999/xlink" x="0px" y="0px"
	 viewBox="0 0 171.4 171.5" enable-background="new 0 0 171.4 171.5" xml:space="preserve">
<g id="Layer_1">
</g>
<g id="View_Btns">
	<circle fill="#66901C" stroke="#000000" stroke-miterlimit="10" cx="85.6" cy="87" r="83.7"/>
	<path fill="#873862" d="M171.4,85.8c0,47.5-38.1,85.6-85.7,85.7C38.3,171.5,0.2,133.2,0,85.8C-0.1,38,39.4-0.3,86.2,0.1
		C133.4,0.5,171.4,38.5,171.4,85.8z M166.3,86c0-44.6-35.9-80.7-80.3-80.8c-44.5,0-80.8,36-80.9,80.3C5,130,41.2,166.4,85.5,166.4
		C130,166.4,166.2,130.4,166.3,86z"/>
	<path fill="#E7E7EA" d="M91.1,122.5c0.4-1.6,1.2-3.3,1.1-4.8c-0.3-3.6,1.7-6,4.4-7.3c2.6-1.3,5.7-0.8,8.2,1.1
		c7.2,5.5,11.3,12.9,12.4,21.8c0.4,3.3,0.9,6.6,0.9,9.9c0,2.2-0.3,4.4-0.9,6.6c-1.2,4.8-5.7,7.3-10.3,5.7c-5.3-1.9-9.5-5.4-12.5-10
		c-1.3-2-1.8-4.7-2.1-7.2c-0.4-3.5-0.1-7-0.2-10.5C91.8,126.1,91.4,124.3,91.1,122.5z M96.1,127.5c0,3-0.1,6.1,0,9.1
		c0.2,7.2,5.4,12.2,11.1,14.2c4.1,1.4,6.2,0,6.1-4.3c-0.1-4.9-0.2-9.9-1-14.7c-0.9-5.4-3-10.4-7.1-14.3c-1.1-1.1-2.5-2.1-3.9-2.6
		c-3.1-1.1-4.9,0.1-5.1,3.5C96.1,121.5,96.1,124.5,96.1,127.5z"/>
	<path fill="#873862" d="M91.1,122.5c0.4,1.8,0.8,3.6,1.1,5.4c-2.2-1.1-4.5-2.1-6.9-3.3c-1.6,1-3.5,2.2-5.7,3.6
		c-0.6-2.5-0.9-4.3,0.8-5.7c2.6-2.1,3-5.1,3-8.2c0-2.1-0.2-4.2,0.1-6.2c0.1-0.8,1.2-2,1.9-2.1c0.7,0,2,1.1,2.1,1.8
		c0.3,2.5,0.2,5.1,0.3,7.6C88,118.3,88.3,121,91.1,122.5z"/>
	<path fill="#E7E7EA" d="M79,127.9c0,3.5,0.2,7.1-0.2,10.5c-0.3,2.5-0.8,5.2-2.1,7.2c-3,4.6-7.2,8.1-12.5,10
		c-4.5,1.6-9.1-1-10.3-5.7c-0.5-2.1-0.9-4.4-0.9-6.6c0.1-3.3,0.5-6.6,0.9-9.9c1.2-9,5.3-16.3,12.4-21.8c2.5-1.9,5.5-2.4,8.2-1.1
		c2.7,1.3,4.7,3.6,4.4,7.3c-0.1,1.6,0.7,3.2,1.1,4.8C79.8,124.3,79.4,126.1,79,127.9z M75,118.4c-0.1-3.3-1.9-4.6-5.1-3.5
		c-1.4,0.5-2.8,1.5-3.9,2.6c-4.2,3.8-6.2,8.9-7.1,14.3c-0.8,4.8-0.9,9.8-1,14.7c-0.1,4.3,2,5.7,6.1,4.3c5.6-2,10.8-7,11.1-14.2
		c0.1-3,0-6.1,0-9.1C75.1,124.5,75.1,121.5,75,118.4z"/>
</g>
<g id="Get_Started_Btn" display="none">
</g>
<g id="Layer_4" display="none">
</g>
<g id="Nav_Content" display="none">
</g>
<g id="Start_Again_Btn" display="none">
</g>
<g id="Funding_Logos" display="none">
</g>
<g id="Action_Btn" display="none">
</g>
<g id="Reset_View" display="none">
</g>
<g id="Age_Area">
</g>
</svg>
