<?xml version="1.0" encoding="utf-8"?>
<!-- Generator: Adobe Illustrator 18.1.0, SVG Export Plug-In . SVG Version: 6.00 Build 0)  -->
<svg version="1.1" xmlns="http://www.w3.org/2000/svg" xmlns:xlink="http://www.w3.org/1999/xlink" x="0px" y="0px"
	 viewBox="0 0 171.5 171.4" enable-background="new 0 0 171.5 171.4" xml:space="preserve">
<g id="Layer_1">
</g>
<g id="View_Btns">
	<circle fill="#6C6B86" cx="85.7" cy="87" r="83.7"/>
	<path fill="#FFFFFF" d="M171.4,85.8c0,47.5-38.1,85.6-85.7,85.7c-47.4,0.1-85.5-38.2-85.7-85.7C0,38,39.4-0.4,86.3,0
		C133.4,0.4,171.5,38.4,171.4,85.8z M166.3,85.9c0-44.6-35.9-80.7-80.3-80.8c-44.5,0-80.8,36-80.9,80.3
		c-0.1,44.4,36.1,80.8,80.4,80.8C130.1,166.4,166.3,130.4,166.3,85.9z"/>
	<path fill="#B2B0A1" d="M32.1,73.9c-0.8-2-2.7-6.2-3.8-8.9c4-3.2,36.7-23.9,48.9-32c3.4-2.3,7.8-3.6,12.3-2.1
		c3.2,2.1,7.1,5.4,11.1,8.1c0.5-2.5,0-5.3,0.5-7.6c8.3,0,16.9,0,25.9,0c0,7.6,0,15.3,0,22.7c4.6,3.7,8.9,7.2,13.3,10.8
		c-1.9,2.8-4.8,6-6.2,8.1c-1.3-0.9-43.6-28.4-48.6-31.6C69.3,50.7,32.8,73.9,32.1,73.9z"/>
	<path fill="#B2B0A1" d="M127.3,77.9c0,18.4,0,36.8,0,55.3c-13.6,0-27.3,0-40.9,0c0-6.8,0-13.6,0-20.5c0-5.4,0-10.7,0-16.4
		c-5.4,0-10.1-0.1-14.8,0c-4.6,0.1-9.9,0-13.8,0.4c0,6.4,0,12.2,0,18c0,5.8,0,11.6,0,18.2c-5.2,0.6-10.5,0.1-16.4,0.3
		c0-13.3,0-26.1,0-39c0-5.5,0-10.9,0-16.4c8.5-5.5,17-11,25.6-16.3C72.5,58,78.4,54.9,85.1,51c3.3,1.8,7.3,4.1,11.4,6.4
		C102.2,60.8,126.4,77.2,127.3,77.9z M122.9,96.5c-3.7-0.2-9.9-0.2-13.6-0.2c-3.6,0-7.2,0.2-10.7,0.3c0,4.5,0,8.2,0,12
		c0,3.3,0,6.6,0,10c7.6,0,22.9,0.1,24.4,0.1c0-4.8,0.3-12.8,0.1-17.8C123,100,123.2,96.5,122.9,96.5z"/>
</g>
<g id="Get_Started_Btn" display="none">
</g>
<g id="Layer_4" display="none">
</g>
<g id="Nav_Content" display="none">
</g>
<g id="Start_Again_Btn" display="none">
</g>
<g id="Funding_Logos" display="none">
</g>
<g id="Action_Btn" display="none">
</g>
<g id="Reset_View" display="none">
</g>
<g id="Age_Area">
</g>
</svg>
