<?xml version="1.0" encoding="utf-8"?>
<!-- Generator: Adobe Illustrator 18.1.0, SVG Export Plug-In . SVG Version: 6.00 Build 0)  -->
<svg version="1.1" xmlns="http://www.w3.org/2000/svg" xmlns:xlink="http://www.w3.org/1999/xlink" x="0px" y="0px"
	 viewBox="0 0 1920 1080" enable-background="new 0 0 1920 1080" xml:space="preserve">
<g id="Layer_1">
	<path fill="#FFFFFF" d="M633.1,186.3v658.2H1292V186.3H633.1z M962.5,828c-172.4,0-312.1-139.3-312.1-311.1
		s139.7-311.1,312.1-311.1s312.1,139.3,312.1,311.1S1134.8,828,962.5,828z"/>
	<path fill="#973F55" d="M1439.9,376.8c0,33.9-27.4,61.3-61.3,61.4c-34.3,0.1-61.7-27.6-61.6-62c0.1-33.7,27.8-61.3,61.6-61.1
		C1415.3,315.3,1440.6,345.7,1439.9,376.8z"/>
	<path fill="#EA7F3F" d="M962.8,186.3c183.6,0.4,330.1,149.6,329.2,331.2c-0.9,179.2-145.9,327.8-329.7,327.7
		c-183.2-0.1-329-148.5-329.1-329.2C633,334.2,780.1,186.4,962.8,186.3z M1286.9,515.5c-0.9-182.3-148.3-322.9-322.2-324
		c-178.1-1.1-326.5,142.7-326.5,324.3c0,180.7,146.9,324.2,324.2,324.2C1138.8,840.2,1286.4,697.8,1286.9,515.5z"/>
	<path fill="#973F55" d="M1545.6,216.7c0.5,21.8-16.8,43.9-43.8,43.9c-26.2,0-43.7-21.1-43.8-43.5c-0.1-24.3,19.4-44.1,43.6-44.2
		C1526,172.8,1545.6,192.3,1545.6,216.7z"/>
	<path fill="#E97835" d="M442.1,804.2c-0.5-19.3,15.3-39.8,40.1-39.7c22.2,0,39.9,18.2,39.8,40.2c-0.1,22-18.3,39.9-40.2,39.8
		C459.7,844.4,442,826.4,442.1,804.2z"/>
	<path fill="#973F55" d="M1502.2,349.2c18.7-0.7,38.3,15.1,38.3,38.3c0,21.2-17.5,38.5-38.6,38.2c-21.1-0.2-38-17.2-38.1-38.2
		C1463.8,364.7,1483,348.4,1502.2,349.2z"/>
	<path fill="#C96345" d="M648.8,814.1c-20.9,0-37.5-16.5-37.5-37.4c0-21.1,16.7-37.6,37.8-37.6c20.9,0,37.6,17.7,37.3,37.7
		C686.1,797.7,669.8,814.1,648.8,814.1z"/>
	<path fill="#812E5A" d="M1455.2,429.8c20.9,0,37.4,16.7,37.4,37.5c-0.1,20.4-16.8,37.2-37.3,37.3c-20.6,0.1-37.6-16.8-37.6-37.5
		C1417.7,446.3,1434.3,429.8,1455.2,429.8z"/>
	<path fill="#B05251" d="M518.9,734.8c-0.7-17.3,13.6-34.7,34.6-34.8c19.2-0.1,34.8,15.6,34.8,34.8c0,19.2-15.6,35-34.7,34.8
		C531.9,769.4,518.2,751.5,518.9,734.8z"/>
	<path fill="#E97835" d="M349.5,824.9c0.8,16.6-13.7,32.6-32.4,32.6c-15.6,0-32.6-11.9-32.6-32.6c0-18.7,14.3-32.6,32.6-32.6
		C338.6,792.3,350.3,810.4,349.5,824.9z"/>
	<path fill="#974156" d="M1589.3,325.3c-15.1-0.1-27.4-12.4-27.4-27.5c0-15.3,12.6-27.7,27.9-27.5c15.2,0.2,27.4,12.4,27.4,27.6
		C1617.2,313.2,1604.8,325.4,1589.3,325.3z"/>
	<path fill="#973F55" d="M1619.7,234.4c-14.6-0.1-25.6-11.3-25.5-26c0.1-14.5,11.5-25.6,26.1-25.4c14.2,0.2,25.5,11.6,25.4,25.8
		C1645.7,223.2,1634.3,234.5,1619.7,234.4z"/>
	<path fill="#C96345" d="M483.4,904.9c0-13.9,10.8-25,24.8-25.2c13.5-0.2,25.1,11.3,25.2,24.9c0.1,13.6-11.2,25.1-24.9,25.3
		C494.8,930,483.5,918.7,483.4,904.9z"/>
	<path fill="#974156" d="M632.5,680.6c0,13.2-10.6,23.8-23.8,23.8c-13.2,0-23.7-10.7-23.7-23.9c0-13.2,10.7-23.8,23.8-23.8
		C622,656.7,632.5,667.4,632.5,680.6z"/>
	<path fill="#B05251" d="M1307.6,313.2c-12.5-0.4-22.5-10.7-22.2-22.9c0.3-12.6,10.8-22.7,23.3-22.4c12.4,0.3,22.4,10.7,22.2,23
		C1330.7,303.5,1320.2,313.6,1307.6,313.2z"/>
	<path fill="#812E5A" d="M1407,186c12.6,0,22.6,9.9,22.7,22.4c0.1,12.6-10.2,22.9-22.9,22.8c-12.4-0.1-22.6-10.4-22.5-22.7
		C1384.4,196.1,1394.5,186.1,1407,186z"/>
	<path fill="#974156" d="M1331.4,207c0.1,12.1-9.3,21.7-21.3,21.9c-11.8,0.2-21.7-9.6-21.8-21.5c-0.1-11.9,9.4-21.6,21.4-21.8
		C1321.6,185.4,1331.3,195,1331.4,207z"/>
	<path fill="#812E5A" d="M1386,271.6c0.1-12.1,9.6-21.4,21.7-21.3c12,0.1,21.5,9.7,21.5,21.7c-0.1,11.8-10,21.6-21.8,21.5
		C1395.4,293.4,1385.9,283.6,1386,271.6z"/>
	<path fill="#E97835" d="M399.5,858.1c-11.5,0-20.6-9.2-20.5-20.8c0.1-11.2,9.3-20.4,20.5-20.4c11.2,0,20.5,9.2,20.6,20.4
		C420.3,848.7,411,858,399.5,858.1z"/>
	<path fill="#974156" d="M481.8,739.2c-11.4,0-20.3-8.9-20.3-20.4c0-11.5,9.3-20.9,20.6-20.7c11.1,0.1,20.4,9.4,20.5,20.5
		C502.6,730.1,493.4,739.2,481.8,739.2z"/>
	<path fill="#974156" d="M567.4,830.4c-11.3-0.1-20.3-9.2-20.3-20.5c0-11.5,9.4-20.8,20.7-20.7c11.2,0.1,20.4,9.4,20.4,20.6
		C588.2,821.3,579,830.4,567.4,830.4z"/>
	<path fill="#B05251" d="M290.7,750.7c0-11.3,9-20.4,20.3-20.4c11.5-0.1,20.9,9.2,20.8,20.5c-0.1,11.1-9.3,20.4-20.5,20.6
		C300,771.6,290.7,762.3,290.7,750.7z"/>
	<path fill="#B05251" d="M380,700.8c-11,0-19.4-8.4-19.5-19.4c0-10.9,8.5-19.6,19.3-19.7c10.9-0.1,20,9,19.8,19.8
		C399.5,692.4,390.9,700.8,380,700.8z"/>
	<path fill="#974156" d="M1679.5,218.8c0-9.2,7.5-16.8,16.7-16.8c9.2,0,16.8,7.4,17,16.6c0.1,9.4-7.6,17.1-17,17.1
		C1686.9,235.6,1679.5,228.1,1679.5,218.8z"/>
	<path fill="#974156" d="M1536.9,145.5c0,9.4-7.3,16.7-16.7,16.7c-9.2,0-16.8-7.5-16.9-16.7c-0.1-9.3,7.7-17,17.2-16.9
		C1529.8,128.7,1537,136.1,1536.9,145.5z"/>
	<path fill="#E97835" d="M593.2,515.8c-0.1,8.5-6.9,15-15.4,14.9c-8.4-0.1-15.1-7-15.1-15.4c0.1-8.5,7.3-15.5,15.7-15.2
		C586.8,500.5,593.4,507.4,593.2,515.8z"/>
	<path fill="#B05251" d="M183.3,1008.9c-8.5,0-15.2-6.8-15.1-15.3c0.1-8.4,7.2-15.4,15.4-15.2c8.4,0.2,15.1,7,15,15.5
		C198.6,1002.5,192,1009,183.3,1008.9z"/>
	<path fill="#B05251" d="M272.7,927.3c8.6-0.1,15.2,6.5,15.3,15.1c0.1,8.6-6.5,15.4-14.9,15.5c-8.4,0.1-15.4-6.8-15.5-15.1
		C257.5,934.2,264.2,927.3,272.7,927.3z"/>
	<path fill="#E97835" d="M403.8,727.5c-0.1-8.7,6.4-15.3,15-15.3c8.6-0.1,15.4,6.6,15.5,15c0.1,8.3-6.8,15.3-15.1,15.5
		C410.9,742.8,403.9,735.9,403.8,727.5z"/>
	<path fill="#B05251" d="M1338.3,470.8c-7.9-0.2-14.2-6.6-14.2-14.5c0-8,6.8-14.6,14.7-14.5c7.8,0.2,14.3,6.8,14.3,14.5
		C1353.1,464.4,1346.3,471,1338.3,470.8z"/>
	<path fill="#B05251" d="M1709.4,127c0.1-8,6.3-14.3,14.2-14.2c8.1,0,14.7,6.6,14.6,14.6c-0.1,7.7-6.7,14.3-14.4,14.3
		C1715.7,141.7,1709.3,135.3,1709.4,127z"/>
	<path fill="#974156" d="M1619.3,413.7c-8.4,0.1-14.6-6-14.6-14.3c0-8,6.2-14.3,14.1-14.5c8-0.1,14.7,6.5,14.7,14.5
		C1633.6,407.3,1627.3,413.7,1619.3,413.7z"/>
	<path fill="#812E5A" d="M1686.6,168.6c0,8.2-6.3,14.6-14.5,14.5c-7.9-0.1-14.2-6.4-14.3-14.3c-0.1-8.1,6.4-14.5,14.5-14.5
		C1680.3,154.4,1686.6,160.7,1686.6,168.6z"/>
	<path fill="#E97835" d="M369.3,906.5c0.1-8.1,6.2-14,14.5-13.8c7.8,0.2,13.7,6.3,13.6,14.2c-0.1,8.1-6.3,14-14.5,13.8
		C375,920.5,369.2,914.5,369.3,906.5z"/>
	<path fill="#B05251" d="M1554.9,461c0,7.5-6.2,13.7-13.7,13.8c-7.6,0.1-14.1-6.3-14-14c0-7.8,6.3-13.8,14.1-13.7
		C1549,447.3,1555,453.4,1554.9,461z"/>
	<path fill="#B05251" d="M1389.1,481.1c0,7.9-6.2,14.1-13.9,13.9c-7.5-0.1-13.7-6.4-13.7-13.8c0-7.8,6.3-13.9,14.1-13.8
		C1383.2,467.4,1389.1,473.4,1389.1,481.1z"/>
	<path fill="#B05251" d="M383.1,793c-7.4-0.1-12.9-5.7-12.8-13.2c0.1-7.4,5.9-13,13.2-12.9c7.3,0.1,12.9,5.9,12.8,13.3
		C396.2,787.6,390.5,793.1,383.1,793z"/>
	<path fill="#E97835" d="M395.2,599c0.1-7.4,5.7-12.8,13.3-12.7c7.4,0.1,12.9,5.8,12.7,13.2c-0.1,7.3-6,12.9-13.3,12.8
		C400.6,612.2,395.1,606.4,395.2,599z"/>
	<path fill="#974156" d="M1809.6,143.7c0,5.9-4.7,10.6-10.6,10.7c-6.1,0.1-10.9-4.7-10.8-10.9c0-6,4.6-10.7,10.5-10.8
		C1804.7,132.7,1809.6,137.6,1809.6,143.7z"/>
	<path fill="#B05251" d="M1829.8,74.8c-5.9-0.1-10.3-4.6-10.2-10.4c0.1-5.8,4.6-10.4,10.3-10.4c5.9-0.1,10.5,4.7,10.4,10.7
		C1840.2,70.7,1835.8,74.9,1829.8,74.8z"/>
	<path fill="#E97835" d="M304.3,672c-5.5-0.1-9.7-4.2-9.7-9.7c0-5.6,4.4-9.9,10.2-9.7c5.4,0.1,9.7,4.7,9.5,10
		C314.1,668,309.7,672.1,304.3,672z"/>
	<path fill="#E97835" d="M195.3,963.9c-5.2,0.1-9.2-3.7-9.2-8.9c-0.1-5,4.1-9.2,9.1-9.2c4.7,0,8.8,4,9,8.8
		C204.4,959.6,200.4,963.8,195.3,963.9z"/>
	<path fill="#E97835" d="M317,917.8c-4.9,0-8.9-4-8.8-8.8c0.1-4.8,4.2-8.7,9.1-8.6c4.7,0.1,8.4,3.9,8.5,8.6
		C325.9,913.9,322,917.8,317,917.8z"/>
	<path fill="#873862" d="M1394.5,588.7c0,4.2-3.7,7.9-8,7.9c-4.2,0-8-3.7-7.9-7.9c0-4.2,3.7-7.9,8-7.9
		C1390.9,580.8,1394.6,584.4,1394.5,588.7z"/>
	<path fill="#873862" d="M1730.1,349.5c4.3,0,7.9,3.6,7.9,7.9c0,4.3-3.7,8-7.9,8c-4.2,0-7.9-3.7-7.9-8
		C1722.2,353.1,1725.8,349.5,1730.1,349.5z"/>
	<path fill="#B05251" d="M1485.9,75.2c0.1,4.5-3.3,8.1-7.6,8.1c-4.4,0.1-7.8-3.4-7.9-7.8c0-4.3,3.1-7.7,7.3-7.9
		C1482,67.3,1485.8,70.8,1485.9,75.2z"/>
	<path fill="#812E5A" d="M1837.9,199.6c4.4-0.1,7.9,3.4,8,7.8c0,4.4-3.4,7.9-7.9,7.8c-4.3,0-7.5-3.2-7.7-7.5
		C1830.3,203.1,1833.5,199.7,1837.9,199.6z"/>
	<path fill="#EA7F3F" d="M232.8,794.2c-3.9,0.1-7.1-2.8-7.3-6.7c-0.3-4.1,2.8-7.5,6.9-7.6c4.1-0.1,7.4,3.1,7.4,7.2
		C239.7,791,236.6,794.1,232.8,794.2z"/>
	<path fill="#EA7F3F" d="M280.1,591.2c-0.2,3.8-3.5,6.8-7.4,6.7c-4-0.1-7.2-3.6-6.9-7.6c0.2-3.8,3.5-6.8,7.4-6.7
		C277.2,583.8,280.3,587.2,280.1,591.2z"/>
	<path fill="#EA7F3F" d="M232.5,961c4,0.1,7.3,3.8,7,7.6c-0.3,3.8-3.5,6.8-7.4,6.7c-4.2-0.1-7.1-3.3-6.9-7.5
		C225.5,964,228.8,960.8,232.5,961z"/>
	<path fill="#EA7F3F" d="M327.9,610.4c-2.7,0.1-5.3-2.3-5.2-5c0-2.6,2.3-4.8,4.9-4.9c2.6-0.1,5,2,5.2,4.5
		C333,607.7,330.6,610.3,327.9,610.4z"/>
	<path fill="#EA7F3F" d="M292,982.8c0,2.7-2,4.8-4.8,4.9c-2.9,0.1-5.2-2.2-5.1-5.1c0.1-2.7,2.2-4.7,5-4.7
		C289.9,978,292,980.1,292,982.8z"/>
	<path fill="#EA7F3F" d="M78.9,1016.4c2.9,0,4.8,1.9,4.8,4.6c0,2.7-2.2,4.9-4.7,4.9c-2.5,0-4.9-2.3-4.9-4.8
		C74.1,1018.4,76.1,1016.4,78.9,1016.4z"/>
	<path fill="#873862" d="M645.1,515.9c0.6-177.6,143.7-316.3,315.2-317.5c176.6-1.2,318.8,141.7,319.6,315.8
		c0.9,173.8-139.5,318.6-317,318.9C788.9,833.4,645.7,693.3,645.1,515.9z M1274.7,515.7c0-170.7-137.8-311.6-311.5-312.1
		c-172.9-0.5-312.6,139-312.9,312.1C650,686.4,787.9,828,962.5,828C1137.4,828,1274.9,686.1,1274.7,515.7z"/>
	<path fill="#812E5A" d="M1464.8,301.1c0-15.1,12.2-27.5,27.3-27.6c15.4-0.1,27.9,12.3,27.9,27.5c0,15.3-12.6,27.8-27.8,27.6
		C1477.1,328.6,1464.9,316.3,1464.8,301.1z"/>
</g>
<g id="View_Btns" display="none">
	<rect x="633.3" y="852.1" display="inline" fill="none" width="658.9" height="173.9"/>
	<path display="inline" fill="#EA7F3F" d="M744.3,937.8c0-47.6,38.6-85.8,86.3-85.7c48,0.1,85.6,39.9,85.3,86.2
		c-0.4,47.1-38.4,85-85.7,85.2C785.3,1023.8,744.6,987.5,744.3,937.8z M830.5,857.2c-44.7-0.1-80.8,35.7-80.9,80.2
		c-0.1,44.8,35.9,81.1,80.6,81c44.2-0.2,80.5-35.4,80.5-80.7C910.6,891.4,873.1,857.4,830.5,857.2z"/>
	<path display="inline" fill="#EA7F3F" d="M836.1,949.4c0.1-1.9,0.1-3.8,0.3-5.7c0.7-5.4,4.9-8.1,10-6.4c1.9,0.6,3.7,1.9,5.2,3.2
		c6.2,5.3,8.8,12.4,10,20.1c0.6,3.6,0.7,7.3,0.9,11c0.1,1.7-0.2,3.5-0.6,5.2c-1.2,4.8-4.8,7.1-9.7,6.1c-6.9-1.4-16.6-9.4-16-19.1
		c0.2-3.2-0.1-6.4-0.2-9.6C836,952.6,836,951,836.1,949.4z M840.9,955.3C840.9,955.3,840.9,955.3,840.9,955.3c0,2.5,0,5.1,0,7.6
		c0,6.7,3.8,12.2,10.1,14.7c4.4,1.8,6.8,0.4,7-4.5c0.2-6.6-0.5-13-2.6-19.3c-1.3-3.8-3.4-7.2-6.4-9.9c-0.8-0.7-1.7-1.5-2.7-2
		c-3.1-1.6-5.2-0.3-5.3,3.3C840.8,948.6,840.9,951.9,840.9,955.3z"/>
	<path display="inline" fill="#EA7F3F" d="M823.9,955.2c-0.1,3.4-0.5,6.8-0.1,10c0.9,7.3-9.1,17.1-16.8,17.7c-4.3,0.4-7-1.4-8.5-5.5
		c-0.3-0.9-0.6-1.8-0.7-2.8c-0.4-8.9,0.2-17.7,4.3-25.7c1.7-3.3,4.2-6.4,7-9c1.7-1.6,4.4-2.7,6.8-3c4.4-0.7,7.4,2.1,7.7,6.5
		c0.2,2.1,0.2,4.1,0.2,6.2C823.9,951.5,823.9,953.3,823.9,955.2z M819.5,955.7C819.5,955.7,819.5,955.7,819.5,955.7
		c0-3.5,0.1-7-0.1-10.5c-0.2-3.6-2.2-4.8-5.5-3.2c-1.1,0.6-2.3,1.3-3,2.3c-2,2.7-4.1,5.3-5.5,8.3c-3.1,6.8-3.4,14.2-3,21.6
		c0.2,3.6,2,4.7,5.5,3.9c5.8-1.3,11.3-7.8,11.5-13.8C819.6,961.5,819.5,958.6,819.5,955.7z"/>
	<path display="inline" fill="#49485A" d="M833.4,884.2c-2.5,0.4-4.9,0.7-7.5,1.1c-0.8,4.3,3.8,1.5,4.6,3.7c0.1,3-5.8-0.4-4.5,4.2
		c1,0.1,2,0.2,3.1,0.4c1,0.1,2,0.3,3.4,0.5c-2.6,2.1-3,2.1-8.8,1.2c0-4.1,0-8.1,0-12.2c3.9-2.5,7.8,0.7,11.9-0.3
		c0.9,2.3,1.8,4.6,3,7.5c1.3-3,2.3-5.4,3.5-8c3.1,1.8,2.3,5.3,4.3,7.3c2.3-1.7,1.3-5.5,4.1-7.2c0.8,3.1-1,8.8-4,13.3
		c-2.5-1.6-1.9-5-4.1-7.2c-1.1,2.5-2.1,4.8-3.4,7.8C835.5,892.6,835.8,887.7,833.4,884.2z"/>
	<path display="inline" fill="#E7E7EA" d="M823.9,955.2c0-1.8,0-3.7,0-5.5c3.4-0.5,4.4-2.9,4.5-5.8c0.1-2.5,0-5.1,0.1-7.7
		c0-1.6,0.6-3,2.4-3c1.8,0,2.3,1.4,2.3,3c0,2.6,0.1,5.1,0,7.7c-0.1,2.5,0.6,4.4,2.9,5.5c0,1.6,0,3.2-0.1,4.8
		c-1.9-0.8-3.7-1.6-5.7-2.5C828.3,952.8,826.1,954,823.9,955.2z"/>
	<path display="inline" fill="#49485A" d="M851.4,906.8c-1.7-0.3-3.3-0.9-4.6-0.6c-1.4,0.3-3.1,1.4-3.6,2.5
		c-0.5,1.2-0.1,3.3,0.8,4.3c0.9,1,2.8,1.2,4.2,1.2c0.6,0,1.2-1.3,2.1-2.4c-2.1-0.6-3.4-1-5.7-1.7c2.8-1.8,4.9-1.2,7.3-1.1
		c0,2.4,0,4.7,0,7.4c-1.9,0.1-3.9,0.4-5.9,0.3c-2.8-0.2-5-2.3-5.6-5.1c-0.6-2.8,0.6-5.6,2.9-7c2.4-1.5,5.3-1.4,7.5,0.5
		C851.3,905.3,851.2,906,851.4,906.8z"/>
	<path display="inline" fill="#49485A" d="M827.6,916.6c0-4.1,0-8.3,0-12.7c4,0.9,4.4,5.6,7.7,7.1c1.3-2.2-0.5-5.1,1.5-7.2
		c1.6,2.9,1.8,7.5,0.6,13.1c-3.8-1.2-4.3-5.6-7.5-7.3C828.7,911.9,830.5,914.6,827.6,916.6z"/>
	<path display="inline" fill="#49485A" d="M816.2,903.8c1.9,1.7,0.8,3.9,1.1,5.8c0.2,2-0.5,4.4,2.3,5c1.8,0.4,2.6-1.4,2.8-5
		c0.1-1.9-0.9-4.1,1-5.8c1.6,2.9,1.7,9.3,0.3,11.3c-1.9,2.6-5.8,2.6-7.7,0C814.4,912.9,814.5,906.6,816.2,903.8z"/>
	<path display="inline" fill="#49485A" d="M806.7,883.1c3.4,1.2,2.3,4.9,4.6,6.7c2-2,1.3-5.4,4-7.1c0.7,3.1-1,8.8-4.2,13.6
		C808.6,892,807.5,887.6,806.7,883.1z"/>
	<path display="inline" fill="#49485A" d="M819.8,882.9c0.7,4.3,1.1,8.5,0.2,13.3C817.5,893.1,817.4,885.9,819.8,882.9z"/>
	<path display="inline" fill="#49485A" d="M807.9,914.5c1.9,0.2,3.6,0.4,6.1,0.7c-3.1,2.7-5.7,1.4-8.6,1.7
		c-0.2-4.4-0.5-8.6,0.7-12.8C808.5,907.2,806.6,910.9,807.9,914.5z"/>
	<path display="inline" fill="#873862" d="M1186.1,939.8c0,47.5-38.1,85.6-85.7,85.7c-47.4,0.1-85.5-38.2-85.7-85.7
		c-0.1-47.7,39.4-86.1,86.2-85.7C1148.1,854.5,1186.1,892.5,1186.1,939.8z M1181,940c0-44.6-35.9-80.7-80.3-80.8
		c-44.5,0-80.8,36-80.9,80.3c-0.1,44.4,36.1,80.8,80.4,80.8C1144.8,1020.5,1180.9,984.5,1181,940z"/>
	<path display="inline" fill="#E7E7EA" d="M1105.8,951.5c0.4-1.6,1.2-3.3,1.1-4.8c-0.3-3.6,1.7-6,4.4-7.3c2.6-1.3,5.7-0.8,8.2,1.1
		c7.2,5.5,11.3,12.9,12.4,21.8c0.4,3.3,0.9,6.6,0.9,9.9c0,2.2-0.3,4.4-0.9,6.6c-1.2,4.8-5.7,7.3-10.3,5.7c-5.3-1.9-9.5-5.4-12.5-10
		c-1.3-2-1.8-4.7-2.1-7.2c-0.4-3.5-0.1-7-0.2-10.5C1106.6,955.1,1106.2,953.3,1105.8,951.5z M1110.9,956.6c0,3-0.1,6.1,0,9.1
		c0.2,7.2,5.4,12.2,11.1,14.2c4.1,1.4,6.2,0,6.1-4.3c-0.1-4.9-0.2-9.9-1-14.7c-0.9-5.4-3-10.4-7.1-14.3c-1.1-1.1-2.5-2.1-3.9-2.6
		c-3.1-1.1-4.9,0.1-5.1,3.5C1110.8,950.5,1110.9,953.5,1110.9,956.6z"/>
	<path display="inline" fill="#49485A" d="M1116.2,891.9c2.3-2.1,1.6-5.6,4.2-7.5c0.7,3.3-1.2,9.4-4.3,13.8
		c-0.7-1.5-1.3-2.6-1.8-3.8c-0.5-1.1-1-2.3-1.8-4.3c-0.8,1.9-1.3,3.1-1.8,4.3c-0.5,1.1-1,2.3-1.8,4.2c-3.2-3.8-3.2-8.4-5.4-11.8
		c-2.3,0.2-4.6,0.4-7,0.6c-0.1,0.7-0.2,1.3-0.3,2.2c1.7,0.5,3.4,0.9,5,1.3c0,0.3,0,0.7,0,1c-1.5,0.3-2.9,0.7-4.5,1
		c-0.8,1.8-0.5,2.8,1.9,2.8c1.3,0,2.7,0.2,4,0.8c-2.5,2.4-5.4,1.1-8.5,1.3c0-4.4,0-8.4,0-12.6c3.8-2,7.6,0.2,11.5-0.2
		c0.9,2.3,1.7,4.5,2.9,7.6c1.3-3,2.4-5.5,3.6-8.1C1114.9,886.3,1114.6,889.4,1116.2,891.9z"/>
	<path display="inline" fill="#873862" d="M1105.8,951.5c0.4,1.8,0.8,3.6,1.1,5.4c-2.2-1.1-4.5-2.1-6.9-3.3c-1.6,1-3.5,2.2-5.7,3.6
		c-0.6-2.5-0.9-4.3,0.8-5.7c2.6-2.1,3-5.1,3-8.2c0-2.1-0.2-4.2,0.1-6.2c0.1-0.8,1.2-2,1.9-2.1c0.7,0,2,1.1,2.1,1.8
		c0.3,2.5,0.2,5.1,0.3,7.6C1102.7,947.3,1103,950,1105.8,951.5z"/>
	<path display="inline" fill="#49485A" d="M1092.6,913c1.1-2.5,2.1-4.9,3.3-7.5c2.9,1.7,2.3,5.1,4.4,7.3c1.2-2.5,2.4-4.8,3.9-8
		c0.8,4-1,9.9-4.2,14.4c-0.7-1.5-1.3-2.6-1.8-3.8c-0.5-1.1-1-2.3-1.8-4.3c-1.3,3.1-2.4,5.4-3.4,7.8c-0.4,0-0.8-0.1-1.1-0.1
		c-1.7-4.1-3.6-8.2-4.3-13.7C1091.1,907.3,1090.4,910.9,1092.6,913z"/>
	<path display="inline" fill="#49485A" d="M1134.3,910.3c1.6,0.4,2.6,0.6,3.6,1c2.6,0.8,3.7,2.5,3.3,4.5c-0.5,2.2-2.6,3.5-5.1,3.2
		c-2.1-0.3-2.5-0.7-3.4-3.8c1.9-1,4.7,4.4,6.1-0.7c-2.4-1.5-7.1-0.6-6.3-5.5c0.4-2.2,2.7-3.6,5.1-3.2c2.4,0.4,3.1,1.3,3,4.3
		C1138.7,909.5,1136.8,906.2,1134.3,910.3z"/>
	<path display="inline" fill="#49485A" d="M1078.9,913.6c-0.3,1.8-0.6,3.4-0.9,5.3c-2-2.2-2.3-5.4-1.3-12.8c2.8-0.8,5.7-1.3,7.8,1.2
		c2,2.4,0.4,4.4-1.3,6.2c0.6,1.7,1.1,3.2,1.8,5.2C1081.2,918.6,1082.2,914.3,1078.9,913.6z M1077.4,909.2c1.5,1,2.1,1.7,2.8,1.9
		c1.2,0.2,2.7,0.2,2.7-1.6c0-0.5-1.3-1.3-2-1.4C1080,908,1079.1,908.6,1077.4,909.2z"/>
	<path display="inline" fill="#49485A" d="M1117.8,918.6c-5.6-3.4-4.2-3.7-10,0c-0.2-2.9,2-8.7,4.8-12.6
		C1115.2,908.5,1118,915.3,1117.8,918.6z M1113.4,911.2c-0.4,0-0.9,0-1.3,0c0,0.8,0,1.6,0.1,2.4c0,0.1,0.8,0.1,1.2,0.1
		C1113.4,912.9,1113.4,912,1113.4,911.2z"/>
	<path display="inline" fill="#49485A" d="M1062.2,905.5c2.4,4.4,3.9,8.6,5.8,13.8c-2.7-1.4-4.2-2.5-5.9-3.1
		c-2.5-0.9-3.3,1.8-4.9,2.8C1056.3,916.1,1058.7,909.7,1062.2,905.5z M1062.2,911.1c-0.4,0-0.7,0.1-1.1,0.1c0.1,0.8,0.1,1.7,0.2,2.5
		c0.4-0.1,0.9-0.1,1.3-0.2C1062.4,912.7,1062.3,911.9,1062.2,911.1z"/>
	<path display="inline" fill="#49485A" d="M1081.5,898.8c-3-5-3.9-9.3-5.6-14.3c4.5,1.3,3.1,5.6,5.5,7.3c2.1-2,1.2-5.6,4.9-7.5
		C1085.5,889.5,1083.6,893.6,1081.5,898.8z"/>
	<path display="inline" fill="#49485A" d="M1124.1,918.8c0.8-5-1.6-8.6-4.8-12.1c3.6-1.4,3.7,2.2,5.9,2.9c1.2-1.1,2.7-2.5,4.9-4.5
		c-0.3,1.8-0.1,2.8-0.5,3.3c-2.4,2.6-3.9,5.4-3.4,9c0.1,0.5-0.5,1-0.7,1.5C1125,918.8,1124.6,918.8,1124.1,918.8z"/>
	<path display="inline" fill="#49485A" d="M1072.1,906.1c0.4,4.2,0.5,8.5-0.9,12.7c-1.7-4.2-1.2-8.5-1.1-12.7
		C1070.8,906,1071.4,906.1,1072.1,906.1z"/>
	<path display="inline" fill="#49485A" d="M1089,897.5c-0.6-4.1-0.4-8.3-0.1-13.3c3,2.4,1.7,4.9,1.9,7c0.2,2.1,0,4.2-0.1,6.4
		C1090.1,897.5,1089.6,897.5,1089,897.5z"/>
	<path display="inline" fill="#E7E7EA" d="M1077.4,909.2c1.8-0.6,2.6-1.2,3.5-1.1c0.7,0.1,2,0.9,2,1.4c0.1,1.8-1.4,1.8-2.7,1.6
		C1079.4,910.9,1078.8,910.2,1077.4,909.2z"/>
	<path display="inline" fill="#E7E7EA" d="M1113.4,911.2c0,0.8,0,1.7,0,2.5c-0.4,0-1.2,0-1.2-0.1c-0.1-0.8-0.1-1.6-0.1-2.4
		C1112.5,911.2,1112.9,911.2,1113.4,911.2z"/>
	<path display="inline" fill="#E7E7EA" d="M1062.2,911.1c0.1,0.8,0.3,1.7,0.4,2.5c-0.4,0.1-0.9,0.1-1.3,0.2
		c-0.1-0.8-0.1-1.7-0.2-2.5C1061.4,911.2,1061.8,911.1,1062.2,911.1z"/>
	<path display="inline" fill="#E7E7EA" d="M1093.7,956.9c0,3.5,0.2,7.1-0.2,10.5c-0.3,2.5-0.8,5.2-2.1,7.2c-3,4.6-7.2,8.1-12.5,10
		c-4.5,1.6-9.1-1-10.3-5.7c-0.5-2.1-0.9-4.4-0.9-6.6c0.1-3.3,0.5-6.6,0.9-9.9c1.2-9,5.3-16.3,12.4-21.8c2.5-1.9,5.5-2.4,8.2-1.1
		c2.7,1.3,4.7,3.6,4.4,7.3c-0.1,1.6,0.7,3.2,1.1,4.8C1094.5,953.3,1094.1,955.1,1093.7,956.9z M1089.8,947.5
		c-0.1-3.3-1.9-4.6-5.1-3.5c-1.4,0.5-2.8,1.5-3.9,2.6c-4.2,3.8-6.2,8.9-7.1,14.3c-0.8,4.8-0.9,9.8-1,14.7c-0.1,4.3,2,5.7,6.1,4.3
		c5.6-2,10.8-7,11.1-14.2c0.1-3,0-6.1,0-9.1C1089.8,953.5,1089.9,950.5,1089.8,947.5z"/>
</g>
<g id="Get_Started_Btn" display="none">
	<path display="inline" fill="#49485A" d="M1818,896.6c-0.1,67.2-54.2,121.3-121.4,121.5c-67.8,0.2-122.2-54.6-122.1-122.8
		c0.2-66.8,55-121.4,122-121C1769.4,774.7,1819.4,834.9,1818,896.6z"/>
</g>
<g id="Layer_4" display="none">
	<circle display="inline" fill="#B05251" cx="960" cy="515.8" r="313.1"/>
</g>
<g id="Nav_Content" display="none">
	<rect x="78.9" y="54" display="inline" fill="#E97835" width="553.6" height="440.9"/>
</g>
<g id="Start_Again_Btn" display="none">
	<ellipse display="inline" fill="#E97835" cx="513.8" cy="316.3" rx="60.2" ry="60.3"/>
</g>
<g id="Funding_Logos" display="none">
	<rect x="74.1" y="586" display="inline" fill="#E97835" width="191.7" height="190.5"/>
</g>
<g id="Action_Btn" display="none">
	<rect x="1574.6" y="774.3" display="inline" fill="#E97835" width="243.5" height="243.8"/>
</g>
</svg>
