<?xml version="1.0" encoding="utf-8"?>
<!-- Generator: Adobe Illustrator 18.1.0, SVG Export Plug-In . SVG Version: 6.00 Build 0)  -->
<svg version="1.1" xmlns="http://www.w3.org/2000/svg" xmlns:xlink="http://www.w3.org/1999/xlink" x="0px" y="0px"
	 viewBox="0 0 1920 1080" enable-background="new 0 0 1920 1080" xml:space="preserve">
<g id="Layer_1">
	<path fill="#973F55" d="M1637.2,236.8c0,22.8-18.4,41.1-41.2,41.2c-23,0.1-41.4-18.5-41.4-41.6c0.1-22.6,18.6-41.2,41.4-41
		C1620.7,195.5,1637.6,215.9,1637.2,236.8z"/>
	<path fill="#973F55" d="M1679,218.3c12.6-0.5,25.7,10.1,25.7,25.7c0,14.2-11.8,25.8-25.9,25.7c-14.2-0.2-25.5-11.6-25.6-25.7
		C1653.2,228.7,1666.1,217.8,1679,218.3z"/>
	<path fill="#812E5A" d="M1647.5,272.4c14,0,25.1,11.2,25.1,25.2c0,13.7-11.3,25-25,25.1c-13.9,0.1-25.2-11.3-25.2-25.2
		C1622.3,283.5,1633.4,272.4,1647.5,272.4z"/>
	<path fill="#974156" d="M1737.4,202.3c-10.2,0-18.4-8.3-18.4-18.5c0-10.3,8.4-18.6,18.7-18.5c10.2,0.1,18.4,8.3,18.4,18.5
		C1756.2,194.1,1747.8,202.3,1737.4,202.3z"/>
	<path fill="#973F55" d="M1757.9,141.2c-9.8-0.1-17.2-7.6-17.1-17.5c0.1-9.7,7.7-17.2,17.6-17c9.5,0.1,17.1,7.8,17.1,17.3
		C1775.3,133.7,1767.6,141.3,1757.9,141.2z"/>
	<path fill="#B05251" d="M1548.4,194.1c-8.4-0.3-15.1-7.2-14.9-15.4c0.2-8.4,7.2-15.2,15.6-15c8.3,0.2,15,7.2,14.9,15.4
		C1563.8,187.6,1556.8,194.4,1548.4,194.1z"/>
	<path fill="#812E5A" d="M1615.1,108.7c8.4,0,15.2,6.6,15.3,15c0.1,8.4-6.9,15.4-15.4,15.3c-8.3,0-15.2-7-15.1-15.3
		C1599.9,115.5,1606.7,108.8,1615.1,108.7z"/>
	<path fill="#974156" d="M1564.3,122.8c0,8.1-6.3,14.6-14.3,14.7c-7.9,0.1-14.6-6.5-14.7-14.4c-0.1-8,6.3-14.5,14.4-14.7
		C1557.7,108.3,1564.3,114.8,1564.3,122.8z"/>
	<path fill="#812E5A" d="M1601,166.2c0.1-8.1,6.4-14.4,14.6-14.3c8,0,14.5,6.5,14.4,14.6c-0.1,7.9-6.7,14.5-14.6,14.4
		C1607.3,180.8,1600.9,174.2,1601,166.2z"/>
	<path fill="#974156" d="M1798,130.7c0-6.2,5-11.3,11.2-11.3c6.2,0,11.3,5,11.4,11.2c0.1,6.3-5.1,11.5-11.4,11.4
		C1803,142,1798,137,1798,130.7z"/>
	<path fill="#974156" d="M1702.3,81.6c0,6.3-4.9,11.2-11.2,11.2c-6.2,0-11.3-5-11.3-11.2c0-6.3,5.2-11.4,11.5-11.4
		C1697.5,70.3,1702.3,75.2,1702.3,81.6z"/>
	<path fill="#B05251" d="M1569,299.9c-5.3-0.1-9.5-4.4-9.5-9.7c0-5.4,4.6-9.8,9.9-9.7c5.2,0.1,9.6,4.5,9.6,9.7
		C1578.9,295.6,1574.3,300,1569,299.9z"/>
	<path fill="#B05251" d="M1818.1,69.1c0-5.4,4.2-9.6,9.6-9.6c5.4,0,9.9,4.4,9.8,9.8c-0.1,5.2-4.5,9.6-9.7,9.6
		C1822.3,79,1818,74.7,1818.1,69.1z"/>
	<path fill="#974156" d="M1757.6,261.6c-5.6,0.1-9.8-4-9.8-9.6c0-5.4,4.1-9.6,9.5-9.7c5.3-0.1,9.9,4.4,9.9,9.7
		C1767.2,257.3,1762.9,261.5,1757.6,261.6z"/>
	<path fill="#812E5A" d="M1802.8,97.1c0,5.5-4.3,9.8-9.7,9.8c-5.3,0-9.6-4.3-9.6-9.6c0-5.4,4.3-9.8,9.8-9.7
		C1798.5,87.5,1802.8,91.7,1802.8,97.1z"/>
	<path fill="#B05251" d="M1714.4,293.3c0,5-4.1,9.2-9.2,9.3c-5.1,0.1-9.4-4.2-9.4-9.4c0-5.2,4.2-9.3,9.5-9.2
		C1710.4,284.1,1714.4,288.2,1714.4,293.3z"/>
	<path fill="#B05251" d="M1603,306.8c0,5.3-4.1,9.4-9.3,9.3c-5-0.1-9.2-4.3-9.2-9.3c0-5.2,4.2-9.3,9.4-9.3
		C1599.1,297.6,1603,301.6,1603,306.8z"/>
	<path fill="#974156" d="M1885.3,80.4c0,4-3.1,7.1-7.1,7.2c-4.1,0.1-7.3-3.1-7.3-7.3c0-4,3.1-7.2,7.1-7.2
		C1882.1,72.9,1885.3,76.2,1885.3,80.4z"/>
	<path fill="#B05251" d="M1898.9,34.1c-3.9-0.1-6.9-3.1-6.9-7c0-3.9,3.1-7,6.9-7c4,0,7,3.1,7,7.2
		C1905.9,31.3,1902.9,34.2,1898.9,34.1z"/>
	<path fill="#873862" d="M1606.7,379c0,2.9-2.5,5.3-5.3,5.3c-2.8,0-5.3-2.5-5.3-5.3c0-2.8,2.5-5.3,5.3-5.3
		C1604.2,373.7,1606.7,376.2,1606.7,379z"/>
	<path fill="#873862" d="M1831.9,218.5c2.9,0,5.3,2.4,5.3,5.3c0,2.9-2.5,5.4-5.3,5.3c-2.8,0-5.3-2.5-5.3-5.3
		C1826.7,220.9,1829.1,218.4,1831.9,218.5z"/>
	<path fill="#B05251" d="M1668,34.3c0.1,3-2.2,5.4-5.1,5.5c-3,0.1-5.3-2.3-5.3-5.3c0-2.9,2.1-5.1,4.9-5.3
		C1665.4,29,1667.9,31.4,1668,34.3z"/>
	<path fill="#812E5A" d="M1904.3,117.8c3-0.1,5.3,2.3,5.4,5.2c0,3-2.3,5.3-5.3,5.3c-2.9,0-5.1-2.1-5.1-5
		C1899.2,120.2,1901.4,117.9,1904.3,117.8z"/>
	<path fill="#812E5A" d="M1653.9,186c0-10.2,8.2-18.5,18.3-18.5c10.3-0.1,18.7,8.3,18.7,18.5c0,10.3-8.5,18.6-18.7,18.5
		C1662.1,204.4,1653.9,196.2,1653.9,186z"/>
</g>
<g id="View_Btns">
	<rect x="-144" y="1012.9" fill="none" width="658.9" height="173.9"/>
	<rect x="-144" y="1012.9" fill="none" width="658.9" height="173.9"/>
	<rect x="-144" y="1012.9" fill="none" width="658.9" height="173.9"/>
	<rect x="-144" y="1012.9" fill="none" width="658.9" height="173.9"/>
	<rect x="-144" y="1068.4" fill="none" width="658.9" height="173.9"/>
	<rect x="-144" y="1068.4" fill="none" width="658.9" height="173.9"/>
	<rect x="-144" y="1068.4" fill="none" width="658.9" height="173.9"/>
	<rect x="-144" y="1068.4" fill="none" width="658.9" height="173.9"/>
	<rect x="-144" y="1070.8" fill="none" width="658.9" height="173.9"/>
</g>
<g id="Get_Started_Btn" display="none">
</g>
<g id="Layer_4" display="none">
</g>
<g id="Nav_Content" display="none">
</g>
<g id="Start_Again_Btn" display="none">
</g>
<g id="Funding_Logos" display="none">
</g>
<g id="Action_Btn" display="none">
</g>
<g id="Reset_View" display="none">
</g>
<g id="Age_Area">
</g>
</svg>
