<?xml version="1.0" encoding="utf-8"?>
<!-- Generator: Adobe Illustrator 18.1.0, SVG Export Plug-In . SVG Version: 6.00 Build 0)  -->
<svg version="1.1" xmlns="http://www.w3.org/2000/svg" xmlns:xlink="http://www.w3.org/1999/xlink" x="0px" y="0px"
	 viewBox="0 0 171.5 173.9" enable-background="new 0 0 171.5 173.9" xml:space="preserve">
<g id="Layer_1">
</g>
<g id="View_Btns">
	<circle fill="#FFC000" stroke="#000000" stroke-miterlimit="10" cx="85.4" cy="86.7" r="83.7"/>
	<path fill="#FFFFFF" d="M0,87C0,39.4,38.6,1.1,86.3,1.2c48,0.1,85.6,39.9,85.3,86.2c-0.4,47.1-38.4,85-85.7,85.2
		C41,172.9,0.3,136.7,0,87z M86.2,6.4C41.5,6.3,5.4,42.1,5.3,86.6c-0.1,44.8,35.9,81.1,80.6,81c44.2-0.2,80.5-35.4,80.5-80.7
		C166.3,40.5,128.8,6.5,86.2,6.4z"/>
	<path fill="#873862" d="M91.8,123.5c0.1-1.9,0.1-3.8,0.3-5.7c0.7-5.4,4.9-8.1,10-6.4c1.9,0.6,3.7,1.9,5.2,3.2
		c6.2,5.3,8.8,12.4,10,20.1c0.6,3.6,0.7,7.3,0.9,11c0.1,1.7-0.2,3.5-0.6,5.2c-1.2,4.8-4.8,7.1-9.7,6.1c-6.9-1.4-16.6-9.4-16-19.1
		c0.2-3.2-0.1-6.4-0.2-9.6C91.7,126.7,91.7,125.1,91.8,123.5z M96.6,129.4C96.6,129.4,96.6,129.4,96.6,129.4c0,2.5,0,5.1,0,7.6
		c0,6.7,3.8,12.2,10.1,14.7c4.4,1.8,6.8,0.4,7-4.5c0.2-6.6-0.5-13-2.6-19.3c-1.3-3.8-3.4-7.2-6.4-9.9c-0.8-0.7-1.7-1.5-2.7-2
		c-3.1-1.6-5.2-0.3-5.3,3.3C96.5,122.8,96.6,126.1,96.6,129.4z"/>
	<path fill="#873862" d="M79.6,129.3c-0.1,3.4-0.5,6.8-0.1,10c0.9,7.3-9.1,17.1-16.8,17.7c-4.3,0.4-7-1.4-8.5-5.5
		c-0.3-0.9-0.6-1.8-0.7-2.8c-0.4-8.9,0.2-17.7,4.3-25.7c1.7-3.3,4.2-6.4,7-9c1.7-1.6,4.4-2.7,6.8-3c4.4-0.7,7.4,2.1,7.7,6.5
		c0.2,2.1,0.2,4.1,0.2,6.2C79.6,125.6,79.6,127.5,79.6,129.3z M75.2,129.9C75.2,129.9,75.2,129.9,75.2,129.9c0-3.5,0.1-7-0.1-10.5
		c-0.2-3.6-2.2-4.8-5.5-3.2c-1.1,0.6-2.3,1.3-3,2.3c-2,2.7-4.1,5.3-5.5,8.3c-3.1,6.8-3.4,14.2-3,21.6c0.2,3.6,2,4.7,5.5,3.9
		c5.8-1.3,11.3-7.8,11.5-13.8C75.3,135.6,75.2,132.8,75.2,129.9z"/>
	<path fill="#E7E7EA" d="M79.6,129.3c0-1.8,0-3.7,0-5.5c3.4-0.5,4.4-2.9,4.5-5.8c0.1-2.5,0-5.1,0.1-7.7c0-1.6,0.6-3,2.4-3
		c1.8,0,2.3,1.4,2.3,3c0,2.6,0.1,5.1,0,7.7c-0.1,2.5,0.6,4.4,2.9,5.5c0,1.6,0,3.2-0.1,4.8c-1.9-0.8-3.7-1.6-5.7-2.5
		C84,126.9,81.8,128.1,79.6,129.3z"/>
</g>
<g id="Get_Started_Btn" display="none">
</g>
<g id="Layer_4" display="none">
</g>
<g id="Nav_Content" display="none">
</g>
<g id="Start_Again_Btn" display="none">
</g>
<g id="Funding_Logos" display="none">
</g>
<g id="Action_Btn" display="none">
</g>
<g id="Reset_View" display="none">
</g>
<g id="Age_Area">
</g>
</svg>
