<?xml version="1.0" encoding="utf-8"?>
<!-- Generator: Adobe Illustrator 18.1.0, SVG Export Plug-In . SVG Version: 6.00 Build 0)  -->
<svg version="1.1" xmlns="http://www.w3.org/2000/svg" xmlns:xlink="http://www.w3.org/1999/xlink" x="0px" y="0px"
	 viewBox="0 0 44.1 54.9" enable-background="new 0 0 44.1 54.9" xml:space="preserve">
<g id="Layer_1">
</g>
<g id="View_Btns">
	<g>
		<path fill="#D49B10" d="M20.8,17.8c3.2-1.3,5.6-0.7,7.3,1.9c4.6-1.5,6.3-0.8,8.2,3.4c5.7-0.9,7.6,0.7,7.5,6.6c0,3.7,0,7.4-0.3,11
			c-0.6,6.4-4.3,10.8-10.2,13.1C27.3,56,21.5,55,16.5,50.9c-1.7-1.4-3.2-3.2-4.4-5c-3.3-5-6.5-10.1-9.7-15.2c-1-1.6-2-3.2-2.4-4.9
			c-0.3-1.2,0-3,0.9-3.8c0.8-0.8,2.7-1.2,3.8-0.8c2.2,0.7,4.2,2.1,6.5,3.4c0-4.8,0-9.5,0-14.2c0-1.1,0.1-2.3,0.4-3.3
			c0.7-2.2,2.8-3.5,5-3.2c2.3,0.3,4.1,2.1,4.1,4.5C20.9,11.4,20.8,14.4,20.8,17.8z M35,28.5c-0.2-0.1-0.5-0.3-0.7-0.4
			c0-1.1,0-2.2,0-3.3c0-2.5-1.1-4-2.8-4c-1.8-0.1-2.9,1.3-3,3.8c0,0.2,0.1,0.5,0,0.7c-0.2,0.4-0.6,0.8-0.9,1.1
			c-0.3-0.4-0.8-0.7-0.9-1.1c-0.1-1.1,0-2.2-0.1-3.4c-0.1-1.9-1.1-3.1-3-3.1c-1.7,0-2.7,1.2-2.8,3c0,1.4,0.1,2.9-0.1,4.3
			c-0.1,0.7-0.6,1.3-0.9,2c-0.3-0.7-0.9-1.3-0.9-2c-0.1-5.6-0.1-11.2,0-16.8c0-2-0.4-3.6-2.7-3.7c-1.9-0.1-2.9,1.2-3,3.8
			c0,6,0,12,0,18c0,0.6-0.1,1.1-0.2,1.6c-2.5-2-4.8-4-7.3-5.6c-0.9-0.6-2.3-0.3-3.5-0.4c0,1.2-0.3,2.6,0.2,3.5
			c4.2,6.9,8.4,13.8,13.1,20.4c3.5,4.9,8.9,6.7,14.9,5.4c5.7-1.2,9.8-4.8,10.9-10.6c0.9-4.7,0.6-9.7,0.5-14.6c0-0.9-1.4-2.3-2.5-2.7
			c-1.5-0.5-2.6,0.6-3.1,2.2C36,27.6,35.4,28,35,28.5z"/>
		<path fill="#D59D14" d="M22.8,13.6c0-2.1,0.1-3.7,0-5.3c-0.1-3.5-3-6.3-6.5-6.4C12.8,1.8,9.8,4.4,9.6,8c-0.1,1.7,0,3.5,0,5.5
			c-2.9-3.3-2.6-8,0.5-11c3.2-3.2,8.3-3.4,11.7-0.4C25.1,5.1,25.7,9.6,22.8,13.6z"/>
	</g>
</g>
<g id="Get_Started_Btn" display="none">
</g>
<g id="Layer_4" display="none">
</g>
<g id="Nav_Content" display="none">
</g>
<g id="Start_Again_Btn" display="none">
</g>
<g id="Funding_Logos" display="none">
</g>
<g id="Action_Btn" display="none">
</g>
<g id="Reset_View" display="none">
</g>
<g id="Age_Area">
</g>
</svg>
