<?xml version="1.0" encoding="utf-8"?>
<!-- Generator: Adobe Illustrator 18.1.0, SVG Export Plug-In . SVG Version: 6.00 Build 0)  -->
<svg version="1.1" xmlns="http://www.w3.org/2000/svg" xmlns:xlink="http://www.w3.org/1999/xlink" x="0px" y="0px"
	 viewBox="0 0 171.5 171.4" enable-background="new 0 0 171.5 171.4" xml:space="preserve">
<g id="Layer_1" display="none">
</g>
<g id="View_Btns">
	<rect x="-111" y="0" fill="none" width="658.9" height="173.9"/>
	<path fill="#EA7F3F" d="M0,85.7C0,38.1,38.6-0.1,86.3,0c48,0.1,85.6,39.9,85.3,86.2c-0.4,47.1-38.4,85-85.7,85.2
		C41,171.7,0.3,135.4,0,85.7z M86.2,5.2C41.5,5.1,5.4,40.9,5.3,85.3c-0.1,44.8,35.9,81.1,80.6,81c44.2-0.2,80.5-35.4,80.5-80.7
		C166.3,39.3,128.8,5.3,86.2,5.2z"/>
	<path fill="#EA7F3F" d="M91.8,122.3c0.1-1.9,0.1-3.8,0.3-5.7c0.7-5.4,4.9-8.1,10-6.4c1.9,0.6,3.7,1.9,5.2,3.2
		c6.2,5.3,8.8,12.4,10,20.1c0.6,3.6,0.7,7.3,0.9,11c0.1,1.7-0.2,3.5-0.6,5.2c-1.2,4.8-4.8,7.1-9.7,6.1c-6.9-1.4-16.6-9.4-16-19.1
		c0.2-3.2-0.1-6.4-0.2-9.6C91.7,125.5,91.7,123.9,91.8,122.3z M96.6,128.2C96.6,128.2,96.6,128.2,96.6,128.2c0,2.5,0,5.1,0,7.6
		c0,6.7,3.8,12.2,10.1,14.7c4.4,1.8,6.8,0.4,7-4.5c0.2-6.6-0.5-13-2.6-19.3c-1.3-3.8-3.4-7.2-6.4-9.9c-0.8-0.7-1.7-1.5-2.7-2
		c-3.1-1.6-5.2-0.3-5.3,3.3C96.5,121.5,96.6,124.9,96.6,128.2z"/>
	<path fill="#EA7F3F" d="M79.6,128.1c-0.1,3.4-0.5,6.8-0.1,10c0.9,7.3-9.1,17.1-16.8,17.7c-4.3,0.4-7-1.4-8.5-5.5
		c-0.3-0.9-0.6-1.8-0.7-2.8c-0.4-8.9,0.2-17.7,4.3-25.7c1.7-3.3,4.2-6.4,7-9c1.7-1.6,4.4-2.7,6.8-3c4.4-0.7,7.4,2.1,7.7,6.5
		c0.2,2.1,0.2,4.1,0.2,6.2C79.6,124.4,79.6,126.2,79.6,128.1z M75.2,128.6C75.2,128.6,75.2,128.6,75.2,128.6c0-3.5,0.1-7-0.1-10.5
		c-0.2-3.6-2.2-4.8-5.5-3.2c-1.1,0.6-2.3,1.3-3,2.3c-2,2.7-4.1,5.3-5.5,8.3c-3.1,6.8-3.4,14.2-3,21.6c0.2,3.6,2,4.7,5.5,3.9
		c5.8-1.3,11.3-7.8,11.5-13.8C75.3,134.4,75.2,131.5,75.2,128.6z"/>
	<path fill="#E7E7EA" d="M79.6,128.1c0-1.8,0-3.7,0-5.5c3.4-0.5,4.4-2.9,4.5-5.8c0.1-2.5,0-5.1,0.1-7.7c0-1.6,0.6-3,2.4-3
		c1.8,0,2.3,1.4,2.3,3c0,2.6,0.1,5.1,0,7.7c-0.1,2.5,0.6,4.4,2.9,5.5c0,1.6,0,3.2-0.1,4.8c-1.9-0.8-3.7-1.6-5.7-2.5
		C84,125.7,81.8,126.9,79.6,128.1z"/>
</g>
<g id="Get_Started_Btn" display="none">
</g>
<g id="Layer_4" display="none">
</g>
<g id="Nav_Content" display="none">
</g>
<g id="Start_Again_Btn" display="none">
</g>
<g id="Funding_Logos" display="none">
</g>
<g id="Action_Btn" display="none">
</g>
<g id="Reset_View" display="none">
</g>
</svg>
