<svg xmlns="http://www.w3.org/2000/svg" viewBox="0 0 106.4 119"><circle fill="#6CACDE" stroke="#FFF" stroke-width="4" cx="53.1" cy="66.1" r="50.8"/><path fill="#00C0E6" d="M24.6 15.5L21 17.2l.3 1.9-3.2 1.6-1.1-12L20.4 7l8.8 8.2-3.3 1.6-1.3-1.3zm-1.8-1.9l-2.9-3.1.7 4.2 2.2-1.1zM28.2 11.7l3.1-1.1c.2.5.5.8.8 1.1.5.3 1 .4 1.7.2.5-.1.8-.4 1-.7.2-.3.2-.6.2-.9-.1-.3-.3-.5-.6-.6s-.9-.2-1.9-.1c-1.6.1-2.7 0-3.5-.4-.8-.4-1.3-1-1.6-1.8-.2-.6-.2-1.1 0-1.7.2-.6.5-1.1 1.1-1.6.5-.5 1.3-.9 2.5-1.3 1.4-.4 2.5-.5 3.4-.2s1.6 1 2 2.1l-3.1 1.1c-.3-.4-.5-.7-.9-.8-.3-.1-.7-.1-1.2 0-.4.1-.7.3-.8.5s-.2.5-.1.7c.1.2.2.3.4.4.2.1.6.1 1.2.1 1.6-.1 2.7-.1 3.4 0s1.3.4 1.7.8c.4.4.7.9.9 1.5.2.7.2 1.4 0 2.1s-.6 1.3-1.2 1.8-1.4.9-2.5 1.2c-1.8.5-3.2.6-4.1.1-.8-.6-1.5-1.4-1.9-2.5zM38.2 1.1L48.7-.2l.3 2.8-3.5.4 1 8.4-3.5.5-1-8.4-3.5.4-.3-2.8zM52-.3l3.4.3-.3 3.9 3.8.3.3-3.9 3.5.3-.9 11.2-3.5-.3.4-4.5-3.8-.3-.3 4.5-3.5-.2L52-.3zM66.9 1.2l4.4 1.4-.3 7.1 3.7-6L79 5l-3.3 10.8-2.7-.9 2.5-8.2-4.6 7.6-2.5-.8.4-8.9-2.5 8.2-2.7-.8 3.3-10.8zM84.1 18.3l-3.5-1.9-1.4 1.4-3.1-1.8 9.2-7.8 3.3 1.8-1.7 12-3.2-1.8.4-1.9zm.5-2.5l.9-4.1-3 2.9 2.1 1.2z"/></svg>
