<svg xmlns="http://www.w3.org/2000/svg" viewBox="0 0 105.9 120.6"><circle fill="#814FA0" stroke="#FFF" stroke-width="4" cx="52.8" cy="67.3" r="50.8"/><path fill="#00C0E6" d="M1.1 23.9l4.6-4.7C6.5 18.4 7.2 18 8 18s1.5.2 2 .8c.5.5.7 1 .8 1.6 0 .4-.1.9-.3 1.4.7-.4 1.4-.6 2-.6.6.1 1.2.3 1.7.8.4.4.7.9.8 1.4.1.5.1 1 0 1.6-.1.3-.3.7-.7 1.2-.5.6-.8 1-1 1.2l-4.2 4.3-8-7.8zm5.6.6l1.1-1.1c.4-.4.6-.7.6-1 0-.3-.1-.5-.4-.8-.2-.2-.5-.3-.8-.3s-.6.2-1 .6l-1 1.1 1.5 1.5zm3.2 3.1l1.2-1.3c.4-.4.6-.8.7-1.1 0-.3-.1-.6-.4-.9-.2-.2-.5-.3-.8-.3-.3 0-.7.3-1.1.7L8.3 26l1.6 1.6zM17.5 23.6l-6.2-9.4 4.8-3.2c.9-.6 1.6-1 2.2-1.1.6-.2 1.1-.1 1.7.1.6.2 1 .6 1.4 1.2.3.5.5 1 .6 1.6 0 .5-.1 1-.3 1.5-.1.3-.4.7-.8 1 .4-.1.8-.2 1-.2.2 0 .4.1.8.2s.6.2.8.3l3.2 1.8-3.3 2.2-3.4-1.8c-.4-.2-.8-.4-1-.4-.3 0-.6.1-.9.3l-.3.2 2.5 3.8-2.8 1.9zm-.8-7.5l1.2-.8c.1-.1.4-.3.7-.6.2-.2.3-.4.3-.6 0-.2 0-.5-.2-.7-.2-.3-.5-.5-.8-.5-.3 0-.7.1-1.2.5l-1.3.8 1.3 1.9zM23.2 6.9l8.7-3.5.9 2.2-5.4 2.2.6 1.7 5-2 .9 2.1-5 2 .8 2.1 5.6-2.2 1 2.4-8.8 3.5-4.3-10.5zM43.9 10.3L40 11l-.1 2-3.5.6 2.1-11.9 3.7-.7 6.2 10.3-3.6.7-.9-1.7zm-1.1-2.2l-2-3.8-.5 4.2 2.5-.4zM47.2.3h10.6v2.8h-3.6v8.5h-3.5V3.1h-3.6l.1-2.8zM61.2.7l3.4.7-.8 3.9 3.7.8.8-3.9 3.4.8-2.4 11-3.4-.7 1-4.5-3.7-.8-1 4.5-3.4-.7L61.2.7zM75.4 4.4l3.2 1.3-4.2 10.5-3.2-1.3 4.2-10.5zM82.3 7.2l2.8 1.7.4 7.5 3.3-5.3 2.8 1.7-5.9 9.6-2.8-1.7-.4-7.5-3.2 5.3-2.8-1.7 5.8-9.6zM93.9 24.5l1.6-1.7 3.9 3.7L96 30c-1.2-.2-2.2-.5-3-.9-.7-.4-1.5-.9-2.3-1.7-1-.9-1.6-1.8-1.9-2.8s-.3-1.9 0-2.8c.3-1 .8-1.9 1.7-2.7.9-.9 1.8-1.5 2.8-1.8 1-.3 2-.3 3 .1.8.3 1.7.9 2.6 1.7.9.9 1.5 1.6 1.8 2.2.3.6.4 1.2.4 1.8 0 .6-.2 1.3-.6 1.9l-2.8-1.9c.2-.4.3-.8.2-1.2-.1-.4-.3-.8-.7-1.1-.6-.5-1.2-.8-1.9-.7-.7.1-1.4.5-2.2 1.3-.8.9-1.3 1.7-1.3 2.4s.2 1.3.8 1.9c.3.3.6.5.9.7.3.2.8.3 1.3.4l.7-.8-1.6-1.5z"/></svg>
