<svg xmlns="http://www.w3.org/2000/svg" viewBox="0 0 110 217.8"><path d="M56.18 1.855c-9.687-.425-19.005 4.224-24.157 12.691l-.004.008c-5.991 9.788-4.947 22.239 2.388 31.258 1.522 1.872 2.767 3.2 3.309 4.174l.045.08.047.078c1.097 1.816 1.426 3.258 1.332 4.156-.094.895-.373 1.752-2.36 3.186-2.509 1.764-5.162 3.382-7.875 4.932C9.124 73.72-1.63 94.636 1.535 117.244c2.497 18.029 12.766 31.812 28.675 40.412l.016.01.015.008c2.909 1.545 5.663 3.378 8.256 5.416l.01.008.01.008c1.182.92 1.267 1.31.76 2.52l-.018.036-.014.04c-1.043 2.608-2.428 5.09-4.062 7.132l-.01.012-.008.012c-3.845 4.862-6.67 10.78-6.676 17.681-.11 14.779 12.515 28.154 28.96 26.493 9.933-.845 18.362-6.806 22.265-16.377l.002-.006c4.006-9.785 1.885-19.798-4.42-27.707l-.033-.043-.035-.041c-1.511-1.814-2.859-3.486-3.61-4.918l-.002-.002c-.973-1.877-1.016-2.805-.902-3.373.113-.567.494-1.38 2.117-2.715 2.104-1.68 4.779-3.273 7.537-4.85l.028-.015.025-.016c18.199-10.705 28.612-27.748 27.963-49.062v-.01c-.652-20.203-11.36-35.9-28.465-45.95l-.01-.006-.011-.008c-2.851-1.655-5.672-3.624-8.323-5.707l-.013-.012-.014-.01c-1.647-1.274-1.696-1.536-.924-3.232 1.165-2.41 2.581-4.786 4.184-6.81l-.024.029c4.698-5.843 7.437-13.045 6.465-20.943l-.002-.016-.002-.014C79.774 13.814 71.303 4.493 60.347 2.351h-.002a28.102 28.102 0 0 0-4.164-.496z" fill="#fff"/><path d="M33.6 189.8c0-5.6 2.2-10.3 5.6-14.6 2-2.5 3.6-5.4 4.8-8.4 1.3-3.1.4-6.3-2.3-8.4-2.8-2.2-5.8-4.2-9-5.9-14.8-8-23.8-20.1-26.1-36.7C3.7 95.1 13.3 76.4 31.5 66c2.8-1.6 5.6-3.3 8.3-5.2 5.7-4.1 5.3-9.2 2.4-14-1-1.8-2.5-3.3-3.8-4.9-6.1-7.5-6.9-17.5-2-25.5 4.8-7.9 13.9-11.7 23.1-9.9 8.7 1.7 15.7 9.3 16.9 18.6.8 6.5-1.3 12.1-5.4 17.2-1.9 2.4-3.5 5.1-4.8 7.8-1.6 3.5-.7 6.9 2.4 9.3 2.8 2.2 5.8 4.3 8.9 6.1 16 9.4 25.4 23.2 26 41.8.6 19.7-8.5 34.6-25.5 44.6-2.8 1.6-5.7 3.3-8.2 5.3-4.4 3.6-5.1 7.3-2.5 12.3 1.1 2.1 2.7 4 4.2 5.8 5.5 6.9 7.1 14.4 3.7 22.7-3.3 8.1-9.7 12.6-18.1 13.3-13.6 1.4-23.6-9.5-23.5-21.5z" fill="#ffc000"/><path fill="#fff" d="M40.039 187.371h30.5v4.8h-30.5zM39.638 25.319h30.5v4.8h-30.5zM52.538 12.419h4.8v30.5h-4.8z"/><circle r="24.6" cy="109.5" cx="54.7" fill="#FFF"/></svg>
