<svg xmlns="http://www.w3.org/2000/svg" viewBox="0 0 110 217.8"><path d="M56.29 1.096C46.602.67 37.284 5.32 32.13 13.787l-.004.008c-5.99 9.788-4.947 22.238 2.389 31.258 1.521 1.872 2.767 3.199 3.309 4.174l.044.08.047.078c1.098 1.816 1.426 3.258 1.332 4.156-.093.895-.372 1.751-2.359 3.186-2.51 1.763-5.163 3.381-7.875 4.931C9.232 72.962-1.521 93.876 1.643 116.484c2.498 18.03 12.766 31.813 28.676 40.412l.015.01.016.008c2.908 1.546 5.662 3.379 8.256 5.416l.01.008.01.008c1.182.92 1.267 1.31.76 2.52l-.018.037-.014.04c-1.043 2.608-2.428 5.09-4.062 7.132l-.01.012-.008.011c-3.845 4.863-6.67 10.781-6.676 17.682-.11 14.778 12.515 28.154 28.959 26.492 9.933-.845 18.362-6.806 22.266-16.377l.002-.006c4.005-9.785 1.885-19.797-4.42-27.707l-.034-.043-.035-.04c-1.51-1.814-2.858-3.486-3.61-4.919l-.001-.002c-.973-1.877-1.016-2.805-.902-3.373.113-.566.493-1.38 2.117-2.715 2.103-1.68 4.778-3.273 7.537-4.85l.027-.015.026-.015c18.198-10.705 28.612-27.748 27.962-49.063v-.01c-.651-20.203-11.359-35.9-28.464-45.95l-.01-.005-.012-.008c-2.85-1.656-5.671-3.624-8.322-5.707l-.014-.012-.014-.01c-1.646-1.275-1.695-1.536-.923-3.232 1.164-2.41 2.58-4.787 4.183-6.81l-.023.029c4.697-5.844 7.437-13.045 6.465-20.944l-.002-.015-.002-.014C79.882 13.055 71.412 3.733 60.455 1.592h-.002a28.102 28.102 0 0 0-4.164-.496z" fill="#fff"/><path d="M33.6 189.8c0-5.6 2.2-10.3 5.6-14.6 2-2.5 3.6-5.4 4.8-8.4 1.3-3.1.4-6.3-2.3-8.4-2.8-2.2-5.8-4.2-9-5.9-14.8-8-23.8-20.1-26.1-36.7C3.7 95.1 13.3 76.4 31.5 66c2.8-1.6 5.6-3.3 8.3-5.2 5.7-4.1 5.3-9.2 2.4-14-1-1.8-2.5-3.3-3.8-4.9-6.1-7.5-6.9-17.5-2-25.5 4.8-7.9 13.9-11.7 23.1-9.9 8.7 1.7 15.7 9.3 16.9 18.6.8 6.5-1.3 12.1-5.4 17.2-1.9 2.4-3.5 5.1-4.8 7.8-1.6 3.5-.7 6.9 2.4 9.3 2.8 2.2 5.8 4.3 8.9 6.1 16 9.4 25.4 23.2 26 41.8.6 19.7-8.5 34.6-25.5 44.6-2.8 1.6-5.7 3.3-8.2 5.3-4.4 3.6-5.1 7.3-2.5 12.3 1.1 2.1 2.7 4 4.2 5.8 5.5 6.9 7.1 14.4 3.7 22.7-3.3 8.1-9.7 12.6-18.1 13.3-13.6 1.4-23.6-9.5-23.5-21.5zm21.1-59.2c12.1.1 21.8-9.3 22-21.3.2-11.7-9.6-22.1-21.5-22-14.5.1-22 11.9-21.9 21.5.1 12.2 9.2 21.7 21.4 21.8z" fill="#239DBF"/><path d="M47.169 176.559l9.722 12.835-3.827 2.898-9.72-12.835zm15.247-.009h4.8v26.5h-4.8z" fill="#fff"/><path d="M42.416 176.55h4.8v26.5h-4.8zm23.795 2.87l-9.72 12.834-3.827-2.898 9.72-12.835zM46.488 14.85h19.2v4.8h-19.2z" fill="#fff"/><path d="M46.488 14.85h4.8v30.5h-4.8z" fill="#fff"/><path d="M46.488 27.75h16.8v4.8h-16.8z" fill="#fff"/><circle r="24.6" cy="109.5" cx="54.7" fill="#FFF"/><path d="M53.064 187.492h3.4v4.8h-3.4z" fill="#fff"/></svg>