<?xml version="1.0" encoding="utf-8"?>
<!-- Generator: Adobe Illustrator 18.1.0, SVG Export Plug-In . SVG Version: 6.00 Build 0)  -->
<svg version="1.1" xmlns="http://www.w3.org/2000/svg" xmlns:xlink="http://www.w3.org/1999/xlink" x="0px" y="0px"
	 viewBox="0 0 76.3 66.5" enable-background="new 0 0 76.3 66.5" xml:space="preserve">
<g id="Layer_1">
</g>
<g id="View_Btns">
	<g>
		<path fill="#D39A0E" d="M0.6,20.4c0.6-3.9,4.7-12.7,7-16c-1,0-2.1,0.1-3.1-0.2C3.9,4,3.4,3.2,2.9,2.7c0.5-0.5,1-1.4,1.6-1.4
			c2.5-0.2,5-0.1,7.5,0c0.2,0,0.4,0.1,0.6,0.2c1.4,0.8,1.6,9.5,0.1,10.1c-0.5,0.2-1.8-0.5-2.1-1.1c-0.4-0.8-0.2-1.9-0.3-3
			c-8.6,9.5-8.7,29.2-0.3,38.7c0.1-0.1,0.3-0.2,0.4-0.3c0.3-1.3-0.5-3.5,1.8-3.3c0.5,0,1.3,2.2,1.3,3.4c0.2,7,0.1,7-6.8,7
			c-0.6,0-1.3,0.2-1.8,0c-0.7-0.3-1.3-0.9-1.9-1.4c0.6-0.5,1.2-1.3,1.9-1.5c1-0.3,2.1-0.1,2.8-0.1c-2.4-5.5-5.8-10.5-7-16.3
			C-0.3,29.3-0.1,24.8,0.6,20.4z"/>
		<path fill="#D39A0E" d="M34.6,15.1c2.4-2.2,4.8-3,7.6-1.9c0.4,0.2,1.2,0,1.6-0.3c4.9-3.3,5.4-3.4,10-0.3c5.2-3.8,8.5-2.9,11.3,3
			c3.1,6.6,6.2,13.2,9.3,19.8c3.8,8.1,1.7,15.4-3.6,22c-0.6,0.8-1.7,1.3-2.7,1.8c-3.9,1.9-7.9,3.4-11.6,5.5
			c-4.3,2.4-8.4,2.1-12.2-0.4c-5.2-3.4-10-7.3-15-11c-2.6-2-5.2-4.1-7.9-6c-3-2.2-4-5.2-2.6-8c1.5-3,4.6-4.1,8.1-2.9
			c1.4,0.5,2.8,1,4.8,1.7c-1-2.3-1.8-4-2.5-5.7c-3.6-7.6-7.2-15.2-10.7-22.8c-1.9-4-0.8-7.5,2.6-9.1c3.4-1.6,6.5-0.1,8.4,3.8
			C31.2,7.9,32.8,11.3,34.6,15.1z M73.3,43.6c-0.2-1.5-0.2-2.9-0.7-4.2c-3.6-8.1-7.3-16.2-11.3-24.1c-0.4-0.9-2.8-1.4-3.9-1.1
			c-0.7,0.2-1.4,2.4-1.2,3.6c0.2,1.6,1.5,3.1,1.9,4.7c0.3,0.8-0.2,1.9-0.3,2.8c-0.8-0.5-2-0.8-2.4-1.6C54,21,53,18,51.4,15.4
			c-0.6-1-2.8-1.6-3.9-1.3c-1.7,0.4-2.2,2.1-1.3,3.9c0.9,1.9,1.9,3.8,2.6,5.7c0.3,0.7-0.1,1.7-0.2,2.6c-0.8-0.4-2.1-0.7-2.5-1.4
			c-1.4-2.4-2.2-5.2-3.7-7.5c-0.6-0.9-2.6-1.6-3.7-1.3c-1.7,0.4-2.4,2-1.6,3.8c0.6,1.5,1.5,2.9,1.9,4.4c0.3,1,0,2.1-0.1,3.1
			c-0.9-0.6-2.2-1.1-2.7-2c-1.6-3-2.9-6.1-4.4-9.2C30,12.5,28.3,8.7,26.3,5c-0.5-0.9-2.6-1.9-3.5-1.5c-0.9,0.3-1.6,2.2-1.9,3.4
			c-0.2,0.7,0.6,1.6,0.9,2.5c4.7,10,9.4,20.1,14.1,30.1c0.4,0.8,0.1,1.8,0.1,2.7c-0.8,0-1.8,0.2-2.5,0c-2.4-0.8-4.7-1.6-7-2.6
			c-1.9-0.8-3.6-1-4.7,1c-1,2,0.3,3.3,1.8,4.5c3,2.2,5.8,4.6,8.7,6.8c4.7,3.5,9.5,7,14.4,10.2c2.5,1.6,5.2,1.5,8,0.1
			c3-1.6,6-3.2,9.2-4.3C70.8,55.4,72.4,49.8,73.3,43.6z"/>
	</g>
</g>
<g id="Get_Started_Btn" display="none">
</g>
<g id="Layer_4" display="none">
</g>
<g id="Nav_Content" display="none">
</g>
<g id="Start_Again_Btn" display="none">
</g>
<g id="Funding_Logos" display="none">
</g>
<g id="Action_Btn" display="none">
</g>
<g id="Reset_View" display="none">
</g>
<g id="Age_Area">
</g>
</svg>
