<svg xmlns="http://www.w3.org/2000/svg" viewBox="0 0 44.1 54.9"><path fill="#D49B10" d="M20.8 17.8c3.2-1.3 5.6-.7 7.3 1.9 4.6-1.5 6.3-.8 8.2 3.4 5.7-.9 7.6.7 7.5 6.6 0 3.7 0 7.4-.3 11-.6 6.4-4.3 10.8-10.2 13.1-6 2.2-11.8 1.2-16.8-2.9-1.7-1.4-3.2-3.2-4.4-5-3.3-5-6.5-10.1-9.7-15.2-1-1.6-2-3.2-2.4-4.9-.3-1.2 0-3 .9-3.8.8-.8 2.7-1.2 3.8-.8 2.2.7 4.2 2.1 6.5 3.4V10.4c0-1.1.1-2.3.4-3.3.7-2.2 2.8-3.5 5-3.2 2.3.3 4.1 2.1 4.1 4.5.2 3 .1 6 .1 9.4zM35 28.5c-.2-.1-.5-.3-.7-.4v-3.3c0-2.5-1.1-4-2.8-4-1.8-.1-2.9 1.3-3 3.8 0 .2.1.5 0 .7-.2.4-.6.8-.9 1.1-.3-.4-.8-.7-.9-1.1-.1-1.1 0-2.2-.1-3.4-.1-1.9-1.1-3.1-3-3.1-1.7 0-2.7 1.2-2.8 3 0 1.4.1 2.9-.1 4.3-.1.7-.6 1.3-.9 2-.3-.7-.9-1.3-.9-2-.1-5.6-.1-11.2 0-16.8 0-2-.4-3.6-2.7-3.7-1.9-.1-2.9 1.2-3 3.8v18c0 .6-.1 1.1-.2 1.6-2.5-2-4.8-4-7.3-5.6-.9-.6-2.3-.3-3.5-.4 0 1.2-.3 2.6.2 3.5 4.2 6.9 8.4 13.8 13.1 20.4 3.5 4.9 8.9 6.7 14.9 5.4 5.7-1.2 9.8-4.8 10.9-10.6.9-4.7.6-9.7.5-14.6 0-.9-1.4-2.3-2.5-2.7-1.5-.5-2.6.6-3.1 2.2-.2 1-.8 1.4-1.2 1.9z"/><path fill="#D59D14" d="M22.8 13.6c0-2.1.1-3.7 0-5.3-.1-3.5-3-6.3-6.5-6.4-3.5-.1-6.5 2.5-6.7 6.1-.1 1.7 0 3.5 0 5.5-2.9-3.3-2.6-8 .5-11 3.2-3.2 8.3-3.4 11.7-.4 3.3 3 3.9 7.5 1 11.5z"/></svg>