<svg xmlns="http://www.w3.org/2000/svg" viewBox="0 0 76.3 66.5"><path fill="#D39A0E" d="M.6 20.4c.6-3.9 4.7-12.7 7-16-1 0-2.1.1-3.1-.2-.6-.2-1.1-1-1.6-1.5.5-.5 1-1.4 1.6-1.4 2.5-.2 5-.1 7.5 0 .2 0 .4.1.6.2 1.4.8 1.6 9.5.1 10.1-.5.2-1.8-.5-2.1-1.1-.4-.8-.2-1.9-.3-3C1.7 17 1.6 36.7 10 46.2c.1-.1.3-.2.4-.3.3-1.3-.5-3.5 1.8-3.3.5 0 1.3 2.2 1.3 3.4.2 7 .1 7-6.8 7-.6 0-1.3.2-1.8 0-.7-.3-1.3-.9-1.9-1.4.6-.5 1.2-1.3 1.9-1.5 1-.3 2.1-.1 2.8-.1-2.4-5.5-5.8-10.5-7-16.3-1-4.4-.8-8.9-.1-13.3zM34.6 15.1c2.4-2.2 4.8-3 7.6-1.9.4.2 1.2 0 1.6-.3 4.9-3.3 5.4-3.4 10-.3 5.2-3.8 8.5-2.9 11.3 3l9.3 19.8c3.8 8.1 1.7 15.4-3.6 22-.6.8-1.7 1.3-2.7 1.8-3.9 1.9-7.9 3.4-11.6 5.5-4.3 2.4-8.4 2.1-12.2-.4-5.2-3.4-10-7.3-15-11-2.6-2-5.2-4.1-7.9-6-3-2.2-4-5.2-2.6-8 1.5-3 4.6-4.1 8.1-2.9 1.4.5 2.8 1 4.8 1.7-1-2.3-1.8-4-2.5-5.7-3.6-7.6-7.2-15.2-10.7-22.8-1.9-4-.8-7.5 2.6-9.1 3.4-1.6 6.5-.1 8.4 3.8 1.7 3.6 3.3 7 5.1 10.8zm38.7 28.5c-.2-1.5-.2-2.9-.7-4.2-3.6-8.1-7.3-16.2-11.3-24.1-.4-.9-2.8-1.4-3.9-1.1-.7.2-1.4 2.4-1.2 3.6.2 1.6 1.5 3.1 1.9 4.7.3.8-.2 1.9-.3 2.8-.8-.5-2-.8-2.4-1.6-1.4-2.7-2.4-5.7-4-8.3-.6-1-2.8-1.6-3.9-1.3-1.7.4-2.2 2.1-1.3 3.9.9 1.9 1.9 3.8 2.6 5.7.3.7-.1 1.7-.2 2.6-.8-.4-2.1-.7-2.5-1.4-1.4-2.4-2.2-5.2-3.7-7.5-.6-.9-2.6-1.6-3.7-1.3-1.7.4-2.4 2-1.6 3.8.6 1.5 1.5 2.9 1.9 4.4.3 1 0 2.1-.1 3.1-.9-.6-2.2-1.1-2.7-2-1.6-3-2.9-6.1-4.4-9.2C30 12.5 28.3 8.7 26.3 5c-.5-.9-2.6-1.9-3.5-1.5-.9.3-1.6 2.2-1.9 3.4-.2.7.6 1.6.9 2.5 4.7 10 9.4 20.1 14.1 30.1.4.8.1 1.8.1 2.7-.8 0-1.8.2-2.5 0-2.4-.8-4.7-1.6-7-2.6-1.9-.8-3.6-1-4.7 1-1 2 .3 3.3 1.8 4.5 3 2.2 5.8 4.6 8.7 6.8 4.7 3.5 9.5 7 14.4 10.2 2.5 1.6 5.2 1.5 8 .1 3-1.6 6-3.2 9.2-4.3 6.9-2.5 8.5-8.1 9.4-14.3z"/></svg>
