<svg xmlns="http://www.w3.org/2000/svg" viewBox="0 0 106.4 106.8"><circle fill="#0AC1E7" stroke="#FFF" stroke-width="4" cx="53.6" cy="53.6" r="50.8"/><path fill="#C764A7" d="M23.3 83.3c10.6-4.8 17.8-7.7 26.8-5.2 1.4.4 2.9-.9 2.8-2.6-1-15-3.4-59-16.2-58.1C22 18.6 20.4 66.9 20.3 80.9c-.1 1.8 1.5 3.1 3 2.4zM83.7 83.3c-10.6-4.8-17.8-7.7-26.8-5.2-1.4.4-2.9-.9-2.8-2.6 1-15 3.4-59 16.2-58.1 14.6 1.1 16.2 49.5 16.4 63.5 0 1.8-1.6 3.1-3 2.4z"/><path d="M52.4 73.3c-.3-.7-.6-1.6-.8-2.5-.2-.9-.3-2-.3-3.2 0-2.4.4-4.3 1.2-5.9.8-1.6 1.7-3.1 2.6-4.5.9-1.4 1.8-2.9 2.6-4.5s1.2-3.5 1.2-5.9c0-1 0-1.9-.1-2.8-.1-.8-.3-1.5-.6-2.1-.3-.6-.9-1-1.6-1.3-.7-.3-1.7-.5-3-.5-.6 0-1.4.1-2.1.4-.8.3-1.3.7-1.6 1.3.4.2.6.9.6 1.9 0 1.2-.3 2.1-1 2.8-.7.7-1.7 1-3 1-2.1 0-3.2-1.5-3.2-4.4 0-2.7 1.1-4.8 3.3-6.1 2.2-1.4 5.3-2 9.1-2 1.9 0 3.7.1 5.3.4 1.7.3 3.2.9 4.4 1.7 1.3.9 2.2 2.1 3 3.6.7 1.6 1.1 3.6 1.1 6 0 2.1-.3 4-1 5.5s-1.6 2.9-2.6 4.1-2.2 2.3-3.5 3.2-2.4 2.1-3.4 3c-1.1 1-2 2-2.6 3.1-.7 1.1-1 2.4-1 3.9v3.7h-3zm1.5 16.3c-3.9 0-5.9-1.8-5.9-5.5s2-5.5 5.9-5.5c3.7 0 5.5 1.8 5.5 5.5.1 3.6-1.8 5.5-5.5 5.5z"/></svg>
