<svg xmlns="http://www.w3.org/2000/svg" viewBox="0 0 106.8 118.8"><circle fill="#67C9CF" stroke="#FFF" stroke-width="4" cx="53.5" cy="65.9" r="50.8"/><path fill="#00C0E6" d="M14.5 20.8l2.6-2c.4.4.7.7 1 .8.6.2 1.1.1 1.7-.3.4-.3.7-.6.8-.9.1-.3.1-.6-.1-.9-.2-.2-.4-.4-.8-.4s-1 .1-1.8.4c-1.5.6-2.6.8-3.5.7-.9-.1-1.5-.5-2-1.3-.3-.5-.5-1-.5-1.6 0-.6.2-1.2.6-1.9s1.1-1.3 2.1-1.9c1.2-.8 2.3-1.2 3.2-1.2.9 0 1.8.5 2.5 1.4l-2.6 2c-.4-.4-.7-.6-1.1-.6s-.7.1-1.2.4c-.3.2-.5.5-.6.7-.1.3 0 .5.1.7.1.1.3.2.5.3.2 0 .6-.1 1.2-.3 1.4-.6 2.5-.9 3.3-1 .7-.1 1.4 0 1.9.2s1 .6 1.3 1.1c.4.6.6 1.3.6 2s-.2 1.4-.6 2.1c-.4.7-1.1 1.3-2 1.9-1.6 1.1-2.9 1.5-3.9 1.3s-1.9-.8-2.7-1.7zM22.1 7l4.3-1.6 4.1 5.8-.8-7L34 2.6l4 10.5-2.7 1-3.1-8 1 8.8-2.4.9-5.1-7.2 3.1 8-2.7 1-4-10.6zM38.3 7.2c-.3-1.8 0-3.3.9-4.5.9-1.2 2.2-1.9 4-2.1 1.9-.3 3.4 0 4.5.9s1.9 2.2 2.1 4c.2 1.3.1 2.4-.2 3.3-.3.9-.9 1.6-1.6 2.2-.8.6-1.8 1-3 1.1-1.3.2-2.3.1-3.2-.1-.9-.3-1.6-.8-2.3-1.6-.6-.8-1-1.9-1.2-3.2zm3.5-.5c.2 1.1.5 1.9 1 2.3.5.4 1.1.6 1.8.5.7-.1 1.3-.4 1.6-1 .3-.5.4-1.4.2-2.7-.2-1.1-.5-1.8-1-2.2-.5-.4-1.1-.6-1.8-.5-.7.1-1.2.4-1.6 1-.3.7-.4 1.5-.2 2.6zM52.7-.1l3.5.2-.3 4.3 3.9-4 4.6.3-4.4 4 3.9 7.3-4.3-.3-2.1-4.8-1.9 1.8-.2 2.7-3.4-.3.7-11.2zM67.2 1.4l3.4.8-2.5 11-3.4-.8 2.5-11zM74.5 3l3 1.2 1.6 7.4 2.3-5.8 3 1.2-4.2 10.4-3-1.2-1.6-7.3-2.3 5.7-3-1.2L74.5 3zM88.7 18.3l1.4-1.9 4.4 3.1-2.8 3.9c-1.2 0-2.3-.2-3.1-.4s-1.6-.7-2.5-1.3c-1.1-.8-1.8-1.6-2.3-2.5-.4-.9-.6-1.8-.4-2.8.2-1 .6-2 1.3-2.9.7-1 1.5-1.7 2.5-2.2.9-.4 2-.6 3-.4.8.2 1.8.6 2.8 1.4 1 .7 1.7 1.4 2.1 1.9.4.5.6 1.1.6 1.8.1.6 0 1.3-.3 2l-3.1-1.5c.1-.4.1-.8 0-1.2-.1-.4-.4-.7-.8-1-.6-.4-1.3-.6-1.9-.4-.7.2-1.4.7-2 1.6-.7 1-1 1.8-1 2.5s.4 1.3 1.1 1.8c.3.2.7.4 1 .5s.8.2 1.3.2l.6-.9-1.9-1.3z"/></svg>
