<?xml version="1.0" encoding="utf-8"?>
<!-- Generator: Adobe Illustrator 18.1.0, SVG Export Plug-In . SVG Version: 6.00 Build 0)  -->
<svg version="1.1" id="Layer_1" xmlns="http://www.w3.org/2000/svg" xmlns:xlink="http://www.w3.org/1999/xlink" x="0px" y="0px"
	 viewBox="0 0 106.4 106.8" enable-background="new 0 0 106.4 106.8" xml:space="preserve">
<g>
	<circle fill="#0AC1E7" stroke="#FFFFFF" stroke-width="4" stroke-miterlimit="10" cx="52.9" cy="53.6" r="50.8"/>
	<path fill="#C764A7" d="M22.6,83.3c10.6-4.8,17.8-7.7,26.8-5.2c1.4,0.4,2.9-0.9,2.8-2.6c-1-15-3.4-59-16.2-58.1
		c-14.6,1.1-16.2,49.5-16.4,63.5C19.6,82.7,21.2,84,22.6,83.3z"/>
	<path fill="#C764A7" d="M83,83.3c-10.6-4.8-17.8-7.7-26.8-5.2c-1.4,0.4-2.9-0.9-2.8-2.6c1-15,3.4-59,16.2-58.1
		C84.3,18.6,85.9,66.9,86,80.9C86,82.7,84.5,84,83,83.3z"/>
	<text transform="matrix(1 0 0 1 39.4393 88.4634)" font-family="'Marion-Bold'" font-size="80.2408">?</text>
</g>
</svg>
